<svg xmlns="http://www.w3.org/2000/svg" xmlns:xlink="http://www.w3.org/1999/xlink" xmlns:lucid="lucid" width="3822" height="2302"><g transform="translate(-79 381)" lucid:page-tab-id="0_0"><path d="M141.67 720H106a6 6 0 0 1-6-6V406a6 6 0 0 1 6-6h35.67z" stroke="#000" stroke-width="2" fill="#fff"/><path d="M141.67 400H3874a6 6 0 0 1 6 6v308a6 6 0 0 1-6 6H141.67z" stroke="#000" stroke-width="2" fill="none"/><use xlink:href="#a" transform="matrix(-1.8369701987210297e-16,-1,1,-1.8369701987210297e-16,100,720) translate(111.94444444444444 25.444444444444443)"/><path d="M141.67 1400H106a6 6 0 0 1-6-6V786a6 6 0 0 1 6-6h35.67z" stroke="#000" stroke-width="2" fill="#fff"/><path d="M141.67 780H3874a6 6 0 0 1 6 6v608a6 6 0 0 1-6 6H141.67z" stroke="#000" stroke-width="2" fill="none"/><use xlink:href="#b" transform="matrix(-1.8369701987210297e-16,-1,1,-1.8369701987210297e-16,100.00000000000034,1400) translate(210.15432098765433 25.444444444444443)"/><use xlink:href="#c" transform="matrix(-1.8369701987210297e-16,-1,1,-1.8369701987210297e-16,100.00000000000034,1400) translate(339.53703703703707 25.444444444444443)"/><path d="M141.67 1900H106a6 6 0 0 1-6-6v-428a6 6 0 0 1 6-6h35.67z" stroke="#000" stroke-width="2" fill="#fff"/><path d="M141.67 1460H3874a6 6 0 0 1 6 6v428a6 6 0 0 1-6 6H141.67z" stroke="#000" stroke-width="2" fill="none"/><use xlink:href="#d" transform="matrix(-1.8369701987210297e-16,-1,1,-1.8369701987210297e-16,100.00000000000023,1899.9999999999998) translate(126.85185185185185 25.444444444444443)"/><use xlink:href="#c" transform="matrix(-1.8369701987210297e-16,-1,1,-1.8369701987210297e-16,100.00000000000023,1899.9999999999998) translate(242.8395061728395 25.444444444444443)"/><use xlink:href="#e" transform="matrix(-1.8369701987210297e-16,-1,1,-1.8369701987210297e-16,141.66666666666674,1900) translate(195.30864197530863 25.444444444444443)"/><path d="M151.67 340H116a6 6 0 0 1-6-6V26a6 6 0 0 1 6-6h35.67z" stroke="#000" stroke-width="2" fill="#fff"/><path d="M151.67 20H3874a6 6 0 0 1 6 6v308a6 6 0 0 1-6 6H151.67z" stroke="#000" stroke-width="2" fill="none"/><use xlink:href="#f" transform="matrix(-1.8369701987210297e-16,-1,1,-1.8369701987210297e-16,110.00000000000003,340.00000000000006) translate(83.30246913580245 25.444444444444443)"/><use xlink:href="#g" transform="matrix(-1.8369701987210297e-16,-1,1,-1.8369701987210297e-16,110.00000000000003,340.00000000000006) translate(188.54938271604937 25.444444444444443)"/><path d="M141.67-40H106a6 6 0 0 1-6-6v-308a6 6 0 0 1 6-6h35.67z" stroke="#000" stroke-width="2" fill="#fff"/><path d="M141.67-360H3874a6 6 0 0 1 6 6v308a6 6 0 0 1-6 6H141.67z" stroke="#000" stroke-width="2" fill="none"/><use xlink:href="#h" transform="matrix(-1.8369701987210297e-16,-1,1,-1.8369701987210297e-16,100.00000000000048,-40) translate(99.32098765432099 25.444444444444443)"/><use xlink:href="#i" transform="matrix(-1.8369701987210297e-16,-1,1,-1.8369701987210297e-16,100.00000000000048,-40) translate(172.53086419753086 25.444444444444443)"/><path d="M300 560c0 16.57-13.43 30-30 30s-30-13.43-30-30 13.43-30 30-30 30 13.43 30 30z" stroke="#000" stroke-width="2" fill="#fff"/><use xlink:href="#j" transform="matrix(1,0,0,1,240,592) translate(6.574074074074076 17.77777777777778)"/><path d="M301.5 560h121.12" stroke="#3a414a" fill="none"/><path d="M301.5 560.48h-.54l.04-.46-.02-.5h.53z" stroke="#3a414a" stroke-width=".05" fill="#3a414a"/><path d="M437.38 560l-14.26 4.63v-9.26z" stroke="#3a414a" fill="#3a414a"/><path d="M440 506a6 6 0 0 1 6-6h148a6 6 0 0 1 6 6v108a6 6 0 0 1-6 6H446a6 6 0 0 1-6-6z" stroke="#000" stroke-width="2" fill="#fff"/><use xlink:href="#k" transform="matrix(1,0,0,1,440,500) translate(19.029999999999994 51.9)"/><use xlink:href="#l" transform="matrix(1,0,0,1,440,500) translate(85.98 51.9)"/><use xlink:href="#m" transform="matrix(1,0,0,1,440,500) translate(125.98 51.9)"/><use xlink:href="#n" transform="matrix(1,0,0,1,440,500) translate(32.055 73.5)"/><use xlink:href="#o" transform="matrix(1,0,0,1,440,500) translate(70.055 73.5)"/><use xlink:href="#p" transform="matrix(1,0,0,1,440,500) translate(89.005 73.5)"/><path d="M601.5 560h61.12" stroke="#3a414a" fill="none"/><path d="M601.5 560.48h-.5v-.96h.5z" stroke="#3a414a" stroke-width=".05" fill="#3a414a"/><path d="M677.38 560l-14.26 4.63v-9.26z" stroke="#3a414a" fill="#3a414a"/><path d="M680 506a6 6 0 0 1 6-6h148a6 6 0 0 1 6 6v108a6 6 0 0 1-6 6H686a6 6 0 0 1-6-6z" stroke="#000" stroke-width="2" fill="#fff"/><use xlink:href="#k" transform="matrix(1,0,0,1,680,500) translate(11.104999999999999 51.9)"/><use xlink:href="#q" transform="matrix(1,0,0,1,680,500) translate(78.055 51.9)"/><use xlink:href="#r" transform="matrix(1,0,0,1,680,500) translate(59.555 73.5)"/><path d="M1160 506a6 6 0 0 1 6-6h148a6 6 0 0 1 6 6v108a6 6 0 0 1-6 6h-148a6 6 0 0 1-6-6z" stroke="#000" stroke-width="2" fill="#fff"/><use xlink:href="#s" transform="matrix(1,0,0,1,1160,500) translate(12.079999999999993 51.9)"/><use xlink:href="#t" transform="matrix(1,0,0,1,1160,500) translate(59.07999999999999 51.9)"/><use xlink:href="#u" transform="matrix(1,0,0,1,1160,500) translate(50.029999999999994 73.5)"/><path d="M1160 1006a6 6 0 0 1 6-6h148a6 6 0 0 1 6 6v108a6 6 0 0 1-6 6h-148a6 6 0 0 1-6-6z" stroke="#000" stroke-width="2" fill="#fff"/><use xlink:href="#v" transform="matrix(1,0,0,1,1160,1000) translate(34.605 51.9)"/><use xlink:href="#w" transform="matrix(1,0,0,1,1160,1000) translate(84.505 51.9)"/><use xlink:href="#x" transform="matrix(1,0,0,1,1160,1000) translate(41.65499999999999 73.5)"/><path d="M1296 840l24 22.5V915h-60v-75z" stroke="#000" stroke-width="2" fill="#fff"/><path d="M1296 840v22.5h24" stroke="#000" stroke-width="2" fill="none"/><use xlink:href="#y" transform="matrix(1,0,0,1,1260,915) translate(-29.16666666666667 17.77777777777778)"/><use xlink:href="#z" transform="matrix(1,0,0,1,1260,915) translate(-7.006172839506171 44.44444444444444)"/><path d="M1377 1060.47h-55.5v-.94h55.5zm168.4 0h-13.54v-.94h13.55z" stroke="#3a414a" stroke-width=".05" fill="#3a414a"/><path d="M1321.5 1060.47h-.5v-.94h.5z" fill="#3a414a"/><path stroke="#3a414a" stroke-width=".05" fill="#3a414a"/><path d="M1560.17 1060l-14.26 4.63v-9.27z" fill="#3a414a"/><path d="M1561.7 1060l-16.27 5.3v-10.6zm-15.32 3.98l12.26-3.98-12.26-3.98z" stroke="#3a414a" stroke-width=".05" fill="#3a414a"/><use xlink:href="#A" transform="matrix(1,0,0,1,1376.9982350453945,1049.3333333333333) translate(0 14.222222222222223)"/><use xlink:href="#B" transform="matrix(1,0,0,1,1376.9982350453945,1049.3333333333333) translate(19.75308641975309 14.222222222222223)"/><use xlink:href="#C" transform="matrix(1,0,0,1,1376.9982350453945,1049.3333333333333) translate(69.03703703703704 14.222222222222223)"/><path d="M1562.5 1060l37.5-37.5 37.5 37.5-37.5 37.5z" stroke="#3a414a" fill="#fff"/><path d="M1585 1045l30 30m-30 0l30-30" stroke="#3a414a" fill="none"/><path d="M1600.47 1021.3h-.94v-12.82h.94zm0-34.15h-.94v-30.27h.94z" stroke="#3a414a" stroke-width=".05" fill="#3a414a"/><path d="M1600.47 1022.27l-.47-.48-.47.47v-1h.94z" fill="#3a414a"/><path stroke="#3a414a" stroke-width=".05" fill="#3a414a"/><path d="M1604.63 956.38h-9.27l4.64-14.26z" fill="#3a414a"/><path d="M1605.3 956.86h-10.6l5.3-16.28zm-9.28-.95h7.96l-3.98-12.25z" stroke="#3a414a" stroke-width=".05" fill="#3a414a"/><use xlink:href="#D" transform="matrix(1,0,0,1,1588.1975308641975,987.15086551265) translate(0 14.222222222222223)"/><path d="M1520 826a6 6 0 0 1 6-6h148a6 6 0 0 1 6 6v108a6 6 0 0 1-6 6h-148a6 6 0 0 1-6-6z" stroke="#3a414a" fill="#fff"/><use xlink:href="#E" transform="matrix(1,0,0,1,1520,820) translate(54.10993827160494 51.52777777777778)"/><use xlink:href="#F" transform="matrix(1,0,0,1,1520,820) translate(25.15932098765431 78.19444444444446)"/><path d="M1600.47 1182.62h-.94v-47.77h.94zm0-69.1h-.94v-14.8h.94z" stroke="#3a414a" stroke-width=".05" fill="#3a414a"/><path d="M1600.47 1098.72h-.94v-1l.47.5.47-.5z" fill="#3a414a"/><path stroke="#3a414a" stroke-width=".05" fill="#3a414a"/><path d="M1600 1197.38l-4.63-14.26h9.27z" fill="#3a414a"/><path d="M1600 1198.92l-5.3-16.28h10.6zm-3.98-15.33l3.98 12.25 3.98-12.26z" stroke="#3a414a" stroke-width=".05" fill="#3a414a"/><path d="M1520 1206a6 6 0 0 1 6-6h148a6 6 0 0 1 6 6v108a6 6 0 0 1-6 6h-148a6 6 0 0 1-6-6z" stroke="#000" stroke-width="2" fill="#fff"/><use xlink:href="#G" transform="matrix(1,0,0,1,1520,1200) translate(52.87537037037037 51.52777777777778)"/><use xlink:href="#F" transform="matrix(1,0,0,1,1520,1200) translate(25.15932098765431 78.19444444444446)"/><path d="M1600.47 1182.62h-.94v-47.77h.94zm0-69.1h-.94v-14.8h.94z" stroke="#3a414a" stroke-width=".05" fill="#3a414a"/><path d="M1600.47 1098.72h-.94v-1l.47.5.47-.5z" fill="#3a414a"/><path stroke="#3a414a" stroke-width=".05" fill="#3a414a"/><path d="M1600 1197.38l-4.63-14.26h9.27z" fill="#3a414a"/><path d="M1600 1198.92l-5.3-16.28h10.6zm-3.98-15.33l3.98 12.25 3.98-12.26z" stroke="#3a414a" stroke-width=".05" fill="#3a414a"/><use xlink:href="#H" transform="matrix(1,0,0,1,1584.6913580246915,1113.5148308221828) translate(0 14.222222222222223)"/><path d="M1600 819v-5.04m0-5.05v-10.08m0-5.04v-10.1m0-5.04v-10.1m0-5.03v-10.08m0-5.05v-10.1m0-5.03v-10.1m0-5.04V708m0-5.03v-10.1m0-5.04v-10.1m0-5.03v-10.1m0-5.04v-10.1m0-5.03v-5.05" stroke="#3a414a" fill="none"/><path d="M1600.47 819.5h-.94v-.5h.94z" stroke="#3a414a" stroke-width=".05" fill="#3a414a"/><path d="M1600 622.62l4.63 14.26h-9.27z" stroke="#3a414a" fill="#3a414a"/><path d="M1520 506.5a6 6 0 0 1 6-6h148a6 6 0 0 1 6 6v108a6 6 0 0 1-6 6h-148a6 6 0 0 1-6-6z" stroke="#3a414a" fill="#fff"/><use xlink:href="#I" transform="matrix(1,0,0,1,1520,500.4999500000001) translate(39.94327160493827 36.52777777777778)"/><use xlink:href="#J" transform="matrix(1,0,0,1,1520,500.4999500000001) translate(25.15932098765431 63.19444444444445)"/><use xlink:href="#K" transform="matrix(1,0,0,1,1520,500.4999500000001) translate(50.4370987654321 89.86111111111111)"/><path d="M1681 560.5h62.62" stroke="#3a414a" fill="none"/><path d="M1681 560.98h-.5V560h.5z" stroke="#3a414a" stroke-width=".05" fill="#3a414a"/><path d="M1758.38 560.5l-14.26 4.63v-9.26z" stroke="#3a414a" fill="#3a414a"/><path d="M1820 560.5c0 16.57-13.43 30-30 30s-30-13.43-30-30 13.43-30 30-30 30 13.43 30 30z" stroke="#3a414a" stroke-width="5" fill="#fff"/><use xlink:href="#L" transform="matrix(1,0,0,1,1760,592.4999500000001) translate(10.246913580246915 17.77777777777778)"/><path d="M1900 958.5v-5.07m0-5.06v-10.14m0-5.06v-10.14m0-5.06v-10.14m0-5.06v-10.14m0-5.06v-10.14m0-5.06v-10.14m0-5.06v-10.14m0-5.06v-10.14m0-5.06v-10.14m0-5.06v-5.07l.07-.94.22-.9.35-.88.5-.8.6-.72.72-.6.8-.5.88-.37.9-.23.95-.07h4.97m4.97 0h9.94m4.97 0h9.94m4.96 0h9.94m4.97 0h9.94m4.98 0h9.94m4.96 0h9.94m4.97 0h9.93m4.97 0h9.94m4.97 0h9.95m4.97 0h9.94m4.97 0h9.94m4.97 0h9.94m4.97 0h9.94m4.96 0h9.94m4.97 0h9.94m4.98 0h9.93m5 0h9.92m4.97 0h9.93m4.97 0h9.94m4.97 0h9.95m4.97 0h9.94m4.97 0h4.97l.94-.07.9-.22.88-.35.8-.5.72-.6.6-.72.5-.8.37-.88.23-.9.07-.95v-5.04m0-5.04v-10.08m0-5.05v-10.1m0-5.03V744.1m0-5.06v-10.08m0-5.04v-10.08m0-5.04v-10.08m0-5.05V683.6m0-5.05v-10.08m0-5.05v-5.04" stroke="#3a414a" fill="none"/><path d="M1900.47 959h-.94v-.5h.94z" stroke="#3a414a" stroke-width=".05" fill="#3a414a"/><path d="M2240 643.62l4.64 14.26h-9.28z" stroke="#3a414a" fill="#3a414a"/><path d="M2160 527a6 6 0 0 1 6-6h148a6 6 0 0 1 6 6v108a6 6 0 0 1-6 6h-148a6 6 0 0 1-6-6z" stroke="#000" stroke-width="2" fill="#fff"/><use xlink:href="#I" transform="matrix(1,0,0,1,2160,520.9999500000001) translate(39.94327160493827 25.27777777777778)"/><use xlink:href="#M" transform="matrix(1,0,0,1,2160,520.9999500000001) translate(19.63462962962962 51.94444444444445)"/><use xlink:href="#N" transform="matrix(1,0,0,1,2160,520.9999500000001) translate(27.10376543209876 78.61111111111111)"/><use xlink:href="#O" transform="matrix(1,0,0,1,2160,520.9999500000001) translate(93.52351851851851 78.61111111111111)"/><use xlink:href="#P" transform="matrix(1,0,0,1,2160,520.9999500000001) translate(45.49882716049382 105.2777777777778)"/><path d="M2136 820l24 22.5V895h-60v-75z" stroke="#000" stroke-width="2" fill="#fff"/><path d="M2136 820v22.5h24" stroke="#000" stroke-width="2" fill="none"/><use xlink:href="#Q" transform="matrix(1,0,0,1,2100,895) translate(-32.808641975308646 17.77777777777778)"/><use xlink:href="#R" transform="matrix(1,0,0,1,2100,895) translate(-0.12345679012345556 44.44444444444444)"/><use xlink:href="#S" transform="matrix(1,0,0,1,2100,895) translate(10.308641975308642 71.11111111111111)"/><use xlink:href="#T" transform="matrix(1,0,0,1,2100,895) translate(-4.506172839506178 97.77777777777777)"/><path d="M1681.5 1260h121.12" stroke="#3a414a" fill="none"/><path d="M1681.5 1260.47h-.5v-.94h.5z" stroke="#3a414a" stroke-width=".05" fill="#3a414a"/><path d="M1817.38 1260l-14.26 4.63v-9.27z" stroke="#3a414a" fill="#3a414a"/><path d="M1820 1186a6 6 0 0 1 6-6h148a6 6 0 0 1 6 6v148a6 6 0 0 1-6 6h-148a6 6 0 0 1-6-6z" stroke="#000" stroke-width="2" fill="#fff"/><use xlink:href="#U" transform="matrix(1,0,0,1,1820,1180) translate(38.67783950617284 32.77777777777778)"/><use xlink:href="#V" transform="matrix(1,0,0,1,1820,1180) translate(28.21487654320987 59.44444444444445)"/><use xlink:href="#W" transform="matrix(1,0,0,1,1820,1180) translate(113.27660493827162 59.44444444444445)"/><use xlink:href="#X" transform="matrix(1,0,0,1,1820,1180) translate(33.80129629629629 86.11111111111111)"/><use xlink:href="#Y" transform="matrix(1,0,0,1,1820,1180) translate(108.98648148148149 86.11111111111111)"/><use xlink:href="#Z" transform="matrix(1,0,0,1,1820,1180) translate(26.332160493827153 112.7777777777778)"/><use xlink:href="#c" transform="matrix(1,0,0,1,1820,1180) translate(44.85067901234568 139.44444444444446)"/><path d="M1900 1341.5v5.03m0 5.03v10.07m0 5.03v10.06m0 5.04v10.06m0 5.03v10.07m0 5.03V1422m0 5.05v10.06m0 5.04v10.06m0 5.04v10.06m0 5.03v10.07m0 5.03v10.06m0 5.03v10.06m0 5.02v10.07m0 5.02v10.06m0 5.03v10.08m0 5.03v10.07m0 5.04v10.07m0 5.03v10.07m0 5.03v10.06m0 5.04v10.06m0 5.03v10.05m0 5.04v10.05m0 5.03v10.07m0 5.03v10.06m0 5.04v10.06m0 5.03v10.07m0 5.03v5.03l.07.94.22.9.35.88.5.8.6.72.72.6.8.5.88.37.9.23.95.07h5.1m5.12 0h10.2m5.12 0h10.2m5.12 0h10.22m5.1 0h10.22m5.1 0h5.12" stroke="#3a414a" fill="none"/><path d="M1900.47 1341.5h-.94v-.5h.94z" stroke="#3a414a" stroke-width=".05" fill="#3a414a"/><path d="M1997.38 1740l-14.26 4.63v-9.27z" stroke="#3a414a" fill="#3a414a"/><path d="M2000 1686a6 6 0 0 1 6-6h148a6 6 0 0 1 6 6v108a6 6 0 0 1-6 6h-148a6 6 0 0 1-6-6z" stroke="#000" stroke-width="2" fill="#fff"/><use xlink:href="#aa" transform="matrix(1,0,0,1,2000,1680) translate(25.12845679012345 51.52777777777778)"/><use xlink:href="#ab" transform="matrix(1,0,0,1,2000,1680) translate(97.84450617283952 51.52777777777778)"/><use xlink:href="#ac" transform="matrix(1,0,0,1,2000,1680) translate(15.869197530864193 78.19444444444446)"/><use xlink:href="#ad" transform="matrix(1,0,0,1,2000,1680) translate(75.12845679012345 78.19444444444446)"/><path d="M841.5 560h61.12" stroke="#3a414a" fill="none"/><path d="M841.5 560.48h-.5v-.96h.5z" stroke="#3a414a" stroke-width=".05" fill="#3a414a"/><path d="M917.38 560l-14.26 4.63v-9.26z" stroke="#3a414a" fill="#3a414a"/><path d="M920 506a6 6 0 0 1 6-6h148a6 6 0 0 1 6 6v108a6 6 0 0 1-6 6H926a6 6 0 0 1-6-6z" stroke="#000" stroke-width="2" fill="#fff"/><use xlink:href="#ae" transform="matrix(1,0,0,1,920,500) translate(7.875370370370357 51.52777777777778)"/><use xlink:href="#af" transform="matrix(1,0,0,1,920,500) translate(67.0729012345679 51.52777777777778)"/><use xlink:href="#ag" transform="matrix(1,0,0,1,920,500) translate(25.19018518518518 78.19444444444446)"/><path d="M1240 621.5v5m0 5.03v10.03m0 5.02v10.03m0 5.02v10.03m0 5.02v10.03m0 5.02v10.03m0 5v10.04m0 5v10.04m0 5.02v10.03m0 5v10.03m0 5.02v10.03m0 5.02v10.03m0 5v10.04m0 5.02v10.02m0 5.02v10.03m0 5v10.04m0 5.03v10.03m0 5v10.05m0 5.02v10.03m0 5.02v10.03m0 5v10.05m0 5v10.04m0 5v10.04m0 5v10.05m0 5v5.02" stroke="#3a414a" fill="none"/><path d="M1240.47 621.5h-.94v-.5h.94z" stroke="#3a414a" stroke-width=".05" fill="#3a414a"/><path d="M1240 997.38l-4.63-14.26h9.27z" stroke="#3a414a" fill="#3a414a"/><path d="M1081.5 560h61.12" stroke="#3a414a" fill="none"/><path d="M1081.5 560.48h-.5v-.96h.5z" stroke="#3a414a" stroke-width=".05" fill="#3a414a"/><path d="M1157.38 560l-14.26 4.63v-9.26z" stroke="#3a414a" fill="#3a414a"/><path d="M1976 1480l24 22.5v52.5h-60v-75z" stroke="#000" stroke-width="2" fill="#fff"/><path d="M1976 1480v22.5h24" stroke="#000" stroke-width="2" fill="none"/><use xlink:href="#y" transform="matrix(1,0,0,1,1940,1555) translate(-29.16666666666667 17.77777777777778)"/><use xlink:href="#ah" transform="matrix(1,0,0,1,1940,1555) translate(11.481481481481481 44.44444444444444)"/><use xlink:href="#ai" transform="matrix(1,0,0,1,1940,1555) translate(-15.617283950617285 71.11111111111111)"/><use xlink:href="#aj" transform="matrix(1,0,0,1,1940,1555) translate(8.395061728395063 97.77777777777777)"/><path d="M1820 966a6 6 0 0 1 6-6h148a6 6 0 0 1 6 6v108a6 6 0 0 1-6 6h-148a6 6 0 0 1-6-6z" stroke="#000" stroke-width="2" fill="#fff"/><use xlink:href="#ak" transform="matrix(1,0,0,1,1820,960) translate(54.07907407407408 36.52777777777778)"/><use xlink:href="#M" transform="matrix(1,0,0,1,1820,960) translate(19.63462962962962 63.19444444444445)"/><use xlink:href="#al" transform="matrix(1,0,0,1,1820,960) translate(49.88154320987654 89.86111111111111)"/><path d="M2600 527a6 6 0 0 1 6-6h228a6 6 0 0 1 6 6v108a6 6 0 0 1-6 6h-228a6 6 0 0 1-6-6z" stroke="#000" stroke-width="2" fill="#fff"/><use xlink:href="#am" transform="matrix(1,0,0,1,2600,520.9999500000001) translate(84.85067901234568 51.52777777777778)"/><use xlink:href="#an" transform="matrix(1,0,0,1,2600,520.9999500000001) translate(129.29512345679012 51.52777777777778)"/><use xlink:href="#ao" transform="matrix(1,0,0,1,2600,520.9999500000001) translate(41.70253086419755 78.19444444444446)"/><path d="M2720 519.5v-5.14m0-5.14v-10.28m0-5.14v-10.28m0-5.14V468.1m0-5.14V452.7m0-5.15v-10.28m0-5.14v-10.28m0-5.14v-10.27m0-5.14V391m0-5.13V375.6m0-5.15v-10.28m0-5.13v-10.28m0-5.14v-10.28m0-5.14v-10.28m0-5.14V298.5m0-5.14v-10.28m0-5.14v-10.28m0-5.14v-5.14" stroke="#3a414a" fill="none"/><path d="M2720.47 520h-.94v-.5h.94z" stroke="#3a414a" stroke-width=".05" fill="#3a414a"/><path d="M2720 242.62l4.64 14.26h-9.28z" stroke="#3a414a" fill="#3a414a"/><path d="M2640 126a6 6 0 0 1 6-6h148a6 6 0 0 1 6 6v108a6 6 0 0 1-6 6h-148a6 6 0 0 1-6-6z" stroke="#000" stroke-width="2" fill="#fff"/><use xlink:href="#ap" transform="matrix(1,0,0,1,2640,120) translate(7.227222222222219 62.77777777777778)"/><use xlink:href="#aq" transform="matrix(1,0,0,1,2640,120) translate(67.65932098765433 62.77777777777778)"/><path d="M2776 360l24 22.5V435h-60v-75z" stroke="#000" stroke-width="2" fill="#fff"/><path d="M2776 360v22.5h24" stroke="#000" stroke-width="2" fill="none"/><use xlink:href="#ar" transform="matrix(1,0,0,1,2740,435) translate(-13.796296296296298 17.77777777777778)"/><use xlink:href="#z" transform="matrix(1,0,0,1,2740,435) translate(-7.006172839506171 44.44444444444444)"/><path d="M2720 118.5v-5.02m0-5.03V98.4m0-5.02V83.34m0-5.03V68.28m0-5.03V53.2m0-5.03V38.13m0-5.03V23.06m0-5.02V7.98m0-5.04V-7.07m0-5.03v-10.05m0-5.02v-10.05m0-5.02V-52.3m0-5v-10.06m0-5.02v-10.05m0-5.02V-97.5m0-5.02v-10.05m0-5.02v-5.02" stroke="#3a414a" fill="none"/><path d="M2720.47 119h-.94v-.5h.94z" stroke="#3a414a" stroke-width=".05" fill="#3a414a"/><path d="M2720-137.38l4.64 14.26h-9.28z" stroke="#3a414a" fill="#3a414a"/><path d="M2640-254a6 6 0 0 1 6-6h148a6 6 0 0 1 6 6v108a6 6 0 0 1-6 6h-148a6 6 0 0 1-6-6z" stroke="#000" stroke-width="2" fill="#fff"/><use xlink:href="#I" transform="matrix(1,0,0,1,2640,-260) translate(39.94327160493827 51.52777777777778)"/><use xlink:href="#aq" transform="matrix(1,0,0,1,2640,-260) translate(37.44327160493827 78.19444444444446)"/><path d="M2801.5-200h121.12" stroke="#3a414a" fill="none"/><path d="M2801.5-199.53h-.5v-.94h.5z" stroke="#3a414a" stroke-width=".05" fill="#3a414a"/><path d="M2937.38-200l-14.26 4.63v-9.26z" stroke="#3a414a" fill="#3a414a"/><path d="M2940-254a6 6 0 0 1 6-6h148a6 6 0 0 1 6 6v108a6 6 0 0 1-6 6h-148a6 6 0 0 1-6-6z" stroke="#000" stroke-width="2" fill="#fff"/><use xlink:href="#as" transform="matrix(1,0,0,1,2940,-260) translate(16.88771604938271 36.52777777777778)"/><use xlink:href="#at" transform="matrix(1,0,0,1,2940,-260) translate(79.72722222222222 36.52777777777778)"/><use xlink:href="#Z" transform="matrix(1,0,0,1,2940,-260) translate(26.332160493827153 63.19444444444445)"/><use xlink:href="#c" transform="matrix(1,0,0,1,2940,-260) translate(44.85067901234568 89.86111111111111)"/><path d="M3020-138.5v4.98m0 5v9.95m0 4.98v9.98m0 4.98v9.97m0 4.98v9.98m0 4.98v9.97m0 4.98v9.98m0 4.98v9.97m0 4.98v9.97m0 5V1m0 4.98v9.97m0 4.98v9.97m0 4.98v9.97m0 4.98v9.97m0 4.98v9.97m0 4.98v9.97m0 4.98v9.96m0 5v9.95m0 5v9.96m0 4.98v9.97m0 5v9.96m0 4.98v9.97m0 5v9.96m0 4.98v9.97m0 5v9.95m0 5v9.95m0 5v9.95m0 5v9.95m0 4.98v9.97m0 4.98V300m0 4.98v9.97m0 4.98v9.97m0 4.98v9.97m0 4.98v9.96m0 4.98v9.96m0 5v9.95m0 4.98v9.96m0 4.98v9.97m0 4.97v9.97m0 4.98v9.97m0 4.97v9.97m0 4.98v9.96m0 5v9.95m0 5v9.95m0 5v9.95m0 5v9.95m0 4.98v9.97m0 4.98v9.98m0 4.98v9.97m0 4.98V599m0 4.98v9.96m0 5v9.95m0 5v9.95m0 4.98v9.97m0 4.98v9.97m0 4.98v9.97m0 4.98v9.97m0 4.98v9.97m0 4.98v9.97m0 4.98v9.96m0 5v9.95m0 5v9.96m0 5v9.95m0 5v9.96m0 4.98v9.97m0 5v9.96m0 4.98v9.97m0 5v9.95m0 5V883m0 5v9.95m0 5v9.95m0 4.98v9.97m0 4.98v9.97m0 4.98v9.97m0 4.98v9.97m0 4.98v9.97m0 4.98v9.96m0 4.98v9.96m0 5v9.95m0 4.97v9.97m0 4.98v9.97m0 4.97v9.97m0 4.98v9.97m0 4.97v9.97m0 4.98v9.96m0 5v9.95m0 5v9.95m0 5v9.95m0 5v9.95m0 4.98v9.97m0 4.98v9.98m0 4.98v9.97m0 4.98v9.98m0 4.98v9.96m0 5v9.95m0 5v9.95m0 5v9.95m0 4.98v9.97m0 4.98v9.97m0 4.98v9.97m0 4.98v9.97m0 4.98v9.97m0 4.98v9.96m0 5v9.95m0 5v9.96m0 4.98v9.97m0 5v9.96m0 4.98v9.97m0 5v9.96m0 4.98v9.97m0 5v9.95m0 5v9.95m0 5v9.95m0 5v9.95m0 4.98v9.97m0 4.98v5" stroke="#3a414a" fill="none"/><path d="M3020.47-138.5h-.94v-.5h.94z" stroke="#3a414a" stroke-width=".05" fill="#3a414a"/><path d="M3020 1595.38l-4.64-14.26h9.28z" stroke="#3a414a" fill="#3a414a"/><path d="M2940 1604a6 6 0 0 1 6-6h148a6 6 0 0 1 6 6v108a6 6 0 0 1-6 6h-148a6 6 0 0 1-6-6z" stroke="#000" stroke-width="2" fill="#fff"/><g><use xlink:href="#au" transform="matrix(1,0,0,1,2940,1597.9999750000002) translate(13.62999999999999 51.9)"/><use xlink:href="#av" transform="matrix(1,0,0,1,2940,1597.9999750000002) translate(90.48 51.9)"/><use xlink:href="#aw" transform="matrix(1,0,0,1,2940,1597.9999750000002) translate(63.029999999999994 73.5)"/></g><path d="M3101.5 1658h81.12" stroke="#3a414a" fill="none"/><path d="M3101.5 1658.47h-.5v-.94h.5z" stroke="#3a414a" stroke-width=".05" fill="#3a414a"/><path d="M3197.38 1658l-14.26 4.63v-9.27z" stroke="#3a414a" fill="#3a414a"/><path d="M3200 1604a6 6 0 0 1 6-6h148a6 6 0 0 1 6 6v108a6 6 0 0 1-6 6h-148a6 6 0 0 1-6-6z" stroke="#000" stroke-width="2" fill="#fff"/><g><use xlink:href="#ax" transform="matrix(1,0,0,1,3200.000000000001,1597.9999750000002) translate(8.430925925925928 36.52777777777778)"/><use xlink:href="#ay" transform="matrix(1,0,0,1,3200.000000000001,1597.9999750000002) translate(66.45561728395062 36.52777777777778)"/><use xlink:href="#M" transform="matrix(1,0,0,1,3200.000000000001,1597.9999750000002) translate(19.63462962962962 63.19444444444445)"/><use xlink:href="#az" transform="matrix(1,0,0,1,3200.000000000001,1597.9999750000002) translate(49.88154320987654 89.86111111111111)"/></g><path d="M3280 1596.5v-4.97m0-4.97v-9.93m0-4.97v-9.94m0-4.97v-9.94m0-4.96v-9.93m0-4.96V1517m0-4.97v-9.94m0-4.98v-9.93m0-4.98v-9.94m0-4.97v-9.93m0-4.97v-9.94m0-4.96v-9.94m0-4.97v-9.95m0-4.97v-9.94m0-4.96v-9.94m0-4.97v-9.94m0-4.97v-9.93m0-4.97v-9.94m0-4.97v-9.94m0-4.96v-9.93m0-4.96v-9.94m0-4.97v-9.94m0-4.98v-9.93m0-4.98v-9.94m0-4.97v-9.93m0-4.97v-9.93m0-4.97v-9.94m0-4.97v-9.95m0-4.97v-9.93m0-4.97v-9.94m0-4.97v-9.94m0-4.97v-9.93m0-4.97v-9.94m0-4.97v-9.94m0-4.96v-9.93m0-4.96v-9.94m0-4.97v-9.94m0-4.98V1040m0-4.98v-9.94m0-4.97v-9.93m0-4.96v-9.93m0-4.97v-9.94m0-4.97v-9.95m0-4.97v-9.93m0-4.97v-9.94m0-4.97v-9.94m0-4.97v-9.93m0-4.97v-9.94m0-4.97V876m0-4.96v-9.93m0-4.96v-9.94m0-4.97v-9.94m0-4.97v-9.94m0-4.98v-9.94m0-4.97v-9.93m0-4.96v-9.93m0-4.97v-9.94m0-4.97v-9.94m0-4.97v-9.95m0-4.97v-9.94m0-4.97v-9.94m0-4.96v-9.94m0-4.97v-9.94m0-4.97v-4.97" stroke="#3a414a" fill="none"/><path d="M3280.47 1597h-.94v-.5h.94z" stroke="#3a414a" stroke-width=".05" fill="#3a414a"/><path d="M3280 642.62l4.64 14.26h-9.28z" stroke="#3a414a" fill="#3a414a"/><path d="M3200 526a6 6 0 0 1 6-6h148a6 6 0 0 1 6 6v108a6 6 0 0 1-6 6h-148a6 6 0 0 1-6-6z" stroke="#000" stroke-width="2" fill="#fff"/><g><use xlink:href="#I" transform="matrix(1,0,0,1,3200.000000000001,520) translate(39.94327160493827 25.27777777777778)"/><use xlink:href="#ay" transform="matrix(1,0,0,1,3200.000000000001,520) translate(37.44327160493827 51.94444444444445)"/><use xlink:href="#M" transform="matrix(1,0,0,1,3200.000000000001,520) translate(19.63462962962962 78.61111111111111)"/><use xlink:href="#az" transform="matrix(1,0,0,1,3200.000000000001,520) translate(49.88154320987654 105.2777777777778)"/></g><path d="M3361.5 580h53a.5.5 0 0 1 .5.5.5.5 0 0 0 .5.5h37.12" stroke="#3a414a" fill="none"/><path d="M3361.5 580.48h-.5v-.96h.5z" stroke="#3a414a" stroke-width=".05" fill="#3a414a"/><path d="M3467.38 581l-14.26 4.63v-9.26z" stroke="#3a414a" fill="#3a414a"/><path d="M3470 527a6 6 0 0 1 6-6h148a6 6 0 0 1 6 6v108a6 6 0 0 1-6 6h-148a6 6 0 0 1-6-6z" stroke="#000" stroke-width="2" fill="#fff"/><g><use xlink:href="#aA" transform="matrix(1,0,0,1,3470.000000000001,520.9999500000001) translate(16.45561728395061 51.52777777777778)"/><use xlink:href="#aB" transform="matrix(1,0,0,1,3470.000000000001,520.9999500000001) translate(78.12228395061727 51.52777777777778)"/><use xlink:href="#aC" transform="matrix(1,0,0,1,3470.000000000001,520.9999500000001) translate(125.03586419753086 51.52777777777778)"/><use xlink:href="#aD" transform="matrix(1,0,0,1,3470.000000000001,520.9999500000001) translate(37.44327160493827 78.19444444444446)"/><use xlink:href="#aE" transform="matrix(1,0,0,1,3470.000000000001,520.9999500000001) translate(74.48030864197531 78.19444444444446)"/></g><path d="M3631.5 581h53.5a.5.5 0 0 0 .5-.5.5.5 0 0 1 .5-.5h37.62" stroke="#3a414a" fill="none"/><path d="M3631.5 581.48h-.5v-.96h.5z" stroke="#3a414a" stroke-width=".05" fill="#3a414a"/><path d="M3738.38 580l-14.26 4.63v-9.26z" stroke="#3a414a" fill="#3a414a"/><path d="M3800 580c0 16.57-13.43 30-30 30s-30-13.43-30-30 13.43-30 30-30 30 13.43 30 30z" stroke="#3a414a" stroke-width="5" fill="#fff"/><g><use xlink:href="#L" transform="matrix(1,0,0,1,3740.000000000001,612) translate(10.246913580246915 17.77777777777778)"/></g><path d="M2390 526a6 6 0 0 1 6-6h148a6 6 0 0 1 6 6v108a6 6 0 0 1-6 6h-148a6 6 0 0 1-6-6z" stroke="#3a414a" fill="#fff"/><g><use xlink:href="#aF" transform="matrix(1,0,0,1,2389.9999999999995,520) translate(39.94327160493827 51.52777777777778)"/><use xlink:href="#P" transform="matrix(1,0,0,1,2389.9999999999995,520) translate(45.49882716049382 78.19444444444446)"/></g><path d="M2551 580h31.62" stroke="#3a414a" fill="none"/><path d="M2551 580.48h-.5v-.96h.5z" stroke="#3a414a" stroke-width=".05" fill="#3a414a"/><path d="M2597.38 580l-14.26 4.63v-9.26z" stroke="#3a414a" fill="#3a414a"/><path d="M2161.5 1740h211.12" stroke="#3a414a" fill="none"/><path d="M2161.5 1740.47h-.5v-.94h.5z" stroke="#3a414a" stroke-width=".05" fill="#3a414a"/><path d="M2387.38 1740l-14.26 4.63v-9.27z" stroke="#3a414a" fill="#3a414a"/><path d="M2390 1686a6 6 0 0 1 6-6h148a6 6 0 0 1 6 6v108a6 6 0 0 1-6 6h-148a6 6 0 0 1-6-6z" stroke="#000" stroke-width="2" fill="#fff"/><g><use xlink:href="#s" transform="matrix(1,0,0,1,2389.999999999999,1680) translate(18.555 51.9)"/><use xlink:href="#aG" transform="matrix(1,0,0,1,2389.999999999999,1680) translate(65.555 51.9)"/><use xlink:href="#aH" transform="matrix(1,0,0,1,2389.999999999999,1680) translate(126.455 51.9)"/><use xlink:href="#aI" transform="matrix(1,0,0,1,2389.999999999999,1680) translate(43.05499999999999 73.5)"/></g><path d="M2470 1678.5v-4.94m0-4.94v-9.88m0-4.94v-9.88m0-4.94v-9.88m0-4.94v-9.9m0-4.93v-9.88m0-4.94v-9.87m0-4.94v-9.9m0-4.93V1555m0-4.95v-9.88m0-4.94v-9.88m0-4.94v-9.88m0-4.94v-9.88m0-4.94v-9.88m0-4.94v-9.88m0-4.94v-9.88m0-4.94v-9.88m0-4.94v-9.88m0-4.94v-9.9m0-4.93v-9.88m0-4.94v-9.87m0-4.94v-9.9m0-4.93v-9.88m0-4.95v-9.88m0-4.94v-9.88m0-4.94v-9.88m0-4.94v-9.88m0-4.94v-9.88m0-4.94v-9.88m0-4.94v-9.88m0-4.94v-9.88m0-4.94v-9.88m0-4.94v-9.9m0-4.93v-9.88m0-4.94v-9.87m0-4.94V1154.8m0-4.93v-9.87m0-4.93v-9.86m0-4.93v-9.85m0-4.93v-9.86m0-4.93v-9.86m0-4.93v-9.86m0-4.93v-9.86m0-4.94v-9.86m0-4.93v-9.86m0-4.92v-9.86m0-4.93v-9.87m0-4.93v-9.86m0-4.93v-9.85m0-4.93v-9.86m0-4.93v-9.86m0-4.93v-9.86m0-4.93v-9.86m0-4.94v-9.86m0-4.93v-9.86m0-4.92v-9.86m0-4.93v-9.87m0-4.93v-9.86m0-4.93v-9.85m0-4.93v-9.86m0-4.93v-9.86m0-4.93v-9.86m0-4.93v-9.86m0-4.94v-9.86m0-4.93v-9.86m0-4.92v-9.87m0-4.92v-9.85m0-4.94v-9.87m0-4.92v-9.86m0-4.92v-4.94" stroke="#3a414a" fill="none"/><path d="M2470.47 1679h-.94v-.5h.94z" stroke="#3a414a" stroke-width=".05" fill="#3a414a"/><path d="M2470 642.12l4.64 14.26h-9.28z" stroke="#3a414a" fill="#3a414a"/><path d="M2536 1060l24 22.5v52.5h-60v-75z" stroke="#000" stroke-width="2" fill="#fff"/><path d="M2536 1060v22.5h24" stroke="#000" stroke-width="2" fill="none"/><g><use xlink:href="#aJ" transform="matrix(1,0,0,1,2500,1135) translate(-1.3580246913580218 17.77777777777778)"/><use xlink:href="#S" transform="matrix(1,0,0,1,2500,1135) translate(10.308641975308642 44.44444444444444)"/><use xlink:href="#T" transform="matrix(1,0,0,1,2500,1135) translate(-4.506172839506178 71.11111111111111)"/></g><path d="M2240 519.5V456a6 6 0 0 1 6-6h57.62" stroke="#3a414a" fill="none"/><path d="M2240.47 520h-.94v-.5h.94z" stroke="#3a414a" stroke-width=".05" fill="#3a414a"/><path d="M2318.38 450l-14.26 4.63v-9.26z" stroke="#3a414a" fill="#3a414a"/><path d="M2380 450c0 16.57-13.43 30-30 30s-30-13.43-30-30 13.43-30 30-30 30 13.43 30 30z" stroke="#3a414a" stroke-width="5" fill="#fff"/><g><use xlink:href="#L" transform="matrix(1,0,0,1,2320,482) translate(10.246913580246915 17.77777777777778)"/></g><path d="M1681.5 1260h62.5a6 6 0 0 0 6-6v-228a6 6 0 0 1 6-6h46.62" stroke="#3a414a" fill="none"/><path d="M1681.5 1260.47h-.5v-.94h.5z" stroke="#3a414a" stroke-width=".05" fill="#3a414a"/><path d="M1817.38 1020l-14.26 4.63v-9.27z" stroke="#3a414a" fill="#3a414a"/><defs><path fill="#3a414a" d="M212-179c-10-28-35-45-73-45-59 0-87 40-87 99 0 60 29 101 89 101 43 0 62-24 78-52l27 14C228-24 195 4 139 4 59 4 22-46 18-125c-6-104 99-153 187-111 19 9 31 26 39 46" id="aK"/><path fill="#3a414a" d="M84 4C-5 8 30-112 23-190h32v120c0 31 7 50 39 49 72-2 45-101 50-169h31l1 190h-30c-1-10 1-25-2-33-11 22-28 36-60 37" id="aL"/><path fill="#3a414a" d="M135-143c-3-34-86-38-87 0 15 53 115 12 119 90S17 21 10-45l28-5c4 36 97 45 98 0-10-56-113-15-118-90-4-57 82-63 122-42 12 7 21 19 24 35" id="aM"/><path fill="#3a414a" d="M59-47c-2 24 18 29 38 22v24C64 9 27 4 27-40v-127H5v-23h24l9-43h21v43h35v23H59v120" id="aN"/><path fill="#3a414a" d="M100-194c62-1 85 37 85 99 1 63-27 99-86 99S16-35 15-95c0-66 28-99 85-99zM99-20c44 1 53-31 53-75 0-43-8-75-51-75s-53 32-53 75 10 74 51 75" id="aO"/><path fill="#3a414a" d="M210-169c-67 3-38 105-44 169h-31v-121c0-29-5-50-35-48C34-165 62-65 56 0H25l-1-190h30c1 10-1 24 2 32 10-44 99-50 107 0 11-21 27-35 58-36 85-2 47 119 55 194h-31v-121c0-29-5-49-35-48" id="aP"/><path fill="#3a414a" d="M100-194c63 0 86 42 84 106H49c0 40 14 67 53 68 26 1 43-12 49-29l28 8c-11 28-37 45-77 45C44 4 14-33 15-96c1-61 26-98 85-98zm52 81c6-60-76-77-97-28-3 7-6 17-6 28h103" id="aQ"/><path fill="#3a414a" d="M114-163C36-179 61-72 57 0H25l-1-190h30c1 12-1 29 2 39 6-27 23-49 58-41v29" id="aR"/><g id="a"><use transform="matrix(0.06172839506172839,0,0,0.06172839506172839,0,0)" xlink:href="#aK"/><use transform="matrix(0.06172839506172839,0,0,0.06172839506172839,15.987654320987653,0)" xlink:href="#aL"/><use transform="matrix(0.06172839506172839,0,0,0.06172839506172839,28.333333333333332,0)" xlink:href="#aM"/><use transform="matrix(0.06172839506172839,0,0,0.06172839506172839,39.44444444444444,0)" xlink:href="#aN"/><use transform="matrix(0.06172839506172839,0,0,0.06172839506172839,45.617283950617285,0)" xlink:href="#aO"/><use transform="matrix(0.06172839506172839,0,0,0.06172839506172839,57.96296296296296,0)" xlink:href="#aP"/><use transform="matrix(0.06172839506172839,0,0,0.06172839506172839,76.41975308641975,0)" xlink:href="#aQ"/><use transform="matrix(0.06172839506172839,0,0,0.06172839506172839,88.76543209876543,0)" xlink:href="#aR"/></g><path fill="#3a414a" d="M233-177c-1 41-23 64-60 70L243 0h-38l-65-103H63V0H30v-248c88 3 205-21 203 71zM63-129c60-2 137 13 137-47 0-61-80-42-137-45v92" id="aS"/><path fill="#3a414a" d="M108 0H70L1-190h34L89-25l56-165h34" id="aT"/><path fill="#3a414a" d="M141-36C126-15 110 5 73 4 37 3 15-17 15-53c-1-64 63-63 125-63 3-35-9-54-41-54-24 1-41 7-42 31l-33-3c5-37 33-52 76-52 45 0 72 20 72 64v82c-1 20 7 32 28 27v20c-31 9-61-2-59-35zM48-53c0 20 12 33 32 33 41-3 63-29 60-74-43 2-92-5-92 41" id="aU"/><path fill="#3a414a" d="M24-231v-30h32v30H24zM24 0v-190h32V0H24" id="aV"/><path fill="#3a414a" d="M117-194c89-4 53 116 60 194h-32v-121c0-31-8-49-39-48C34-167 62-67 57 0H25l-1-190h30c1 10-1 24 2 32 11-22 29-35 61-36" id="aW"/><g id="b"><use transform="matrix(0.06172839506172839,0,0,0.06172839506172839,0,0)" xlink:href="#aS"/><use transform="matrix(0.06172839506172839,0,0,0.06172839506172839,15.987654320987653,0)" xlink:href="#aQ"/><use transform="matrix(0.06172839506172839,0,0,0.06172839506172839,28.333333333333332,0)" xlink:href="#aM"/><use transform="matrix(0.06172839506172839,0,0,0.06172839506172839,39.44444444444444,0)" xlink:href="#aQ"/><use transform="matrix(0.06172839506172839,0,0,0.06172839506172839,51.79012345679012,0)" xlink:href="#aR"/><use transform="matrix(0.06172839506172839,0,0,0.06172839506172839,59.1358024691358,0)" xlink:href="#aT"/><use transform="matrix(0.06172839506172839,0,0,0.06172839506172839,70.24691358024691,0)" xlink:href="#aU"/><use transform="matrix(0.06172839506172839,0,0,0.06172839506172839,82.5925925925926,0)" xlink:href="#aN"/><use transform="matrix(0.06172839506172839,0,0,0.06172839506172839,88.76543209876543,0)" xlink:href="#aV"/><use transform="matrix(0.06172839506172839,0,0,0.06172839506172839,93.64197530864197,0)" xlink:href="#aO"/><use transform="matrix(0.06172839506172839,0,0,0.06172839506172839,105.98765432098766,0)" xlink:href="#aV"/><use transform="matrix(0.06172839506172839,0,0,0.06172839506172839,110.8641975308642,0)" xlink:href="#aW"/></g><path fill="#3a414a" d="M179-190L93 31C79 59 56 82 12 73V49c39 6 53-20 64-50L1-190h34L92-34l54-156h33" id="aX"/><g id="c"><use transform="matrix(0.06172839506172839,0,0,0.06172839506172839,0,0)" xlink:href="#aM"/><use transform="matrix(0.06172839506172839,0,0,0.06172839506172839,11.11111111111111,0)" xlink:href="#aX"/><use transform="matrix(0.06172839506172839,0,0,0.06172839506172839,22.22222222222222,0)" xlink:href="#aM"/><use transform="matrix(0.06172839506172839,0,0,0.06172839506172839,33.33333333333333,0)" xlink:href="#aN"/><use transform="matrix(0.06172839506172839,0,0,0.06172839506172839,39.50617283950617,0)" xlink:href="#aQ"/><use transform="matrix(0.06172839506172839,0,0,0.06172839506172839,51.85185185185185,0)" xlink:href="#aP"/></g><path fill="#3a414a" d="M205 0l-28-72H64L36 0H1l101-248h38L239 0h-34zm-38-99l-47-123c-12 45-31 82-46 123h93" id="aY"/><path fill="#3a414a" d="M96-169c-40 0-48 33-48 73s9 75 48 75c24 0 41-14 43-38l32 2c-6 37-31 61-74 61-59 0-76-41-82-99-10-93 101-131 147-64 4 7 5 14 7 22l-32 3c-4-21-16-35-41-35" id="aZ"/><path fill="#3a414a" d="M177-190C167-65 218 103 67 71c-23-6-38-20-44-43l32-5c15 47 100 32 89-28v-30C133-14 115 1 83 1 29 1 15-40 15-95c0-56 16-97 71-98 29-1 48 16 59 35 1-10 0-23 2-32h30zM94-22c36 0 50-32 50-73 0-42-14-75-50-75-39 0-46 34-46 75s6 73 46 73" id="ba"/><g id="d"><use transform="matrix(0.06172839506172839,0,0,0.06172839506172839,0,0)" xlink:href="#aY"/><use transform="matrix(0.06172839506172839,0,0,0.06172839506172839,14.814814814814813,0)" xlink:href="#aZ"/><use transform="matrix(0.06172839506172839,0,0,0.06172839506172839,25.925925925925924,0)" xlink:href="#aZ"/><use transform="matrix(0.06172839506172839,0,0,0.06172839506172839,37.03703703703704,0)" xlink:href="#aO"/><use transform="matrix(0.06172839506172839,0,0,0.06172839506172839,49.382716049382715,0)" xlink:href="#aL"/><use transform="matrix(0.06172839506172839,0,0,0.06172839506172839,61.72839506172839,0)" xlink:href="#aW"/><use transform="matrix(0.06172839506172839,0,0,0.06172839506172839,74.07407407407408,0)" xlink:href="#aN"/><use transform="matrix(0.06172839506172839,0,0,0.06172839506172839,80.24691358024691,0)" xlink:href="#aV"/><use transform="matrix(0.06172839506172839,0,0,0.06172839506172839,85.12345679012346,0)" xlink:href="#aW"/><use transform="matrix(0.06172839506172839,0,0,0.06172839506172839,97.46913580246914,0)" xlink:href="#ba"/></g><path fill="#3a414a" d="M30 0v-248h33v221h125V0H30" id="bb"/><g id="e"><use transform="matrix(0.06172839506172839,0,0,0.06172839506172839,0,0)" xlink:href="#bb"/><use transform="matrix(0.06172839506172839,0,0,0.06172839506172839,12.345679012345679,0)" xlink:href="#aU"/><use transform="matrix(0.06172839506172839,0,0,0.06172839506172839,24.691358024691358,0)" xlink:href="#aW"/><use transform="matrix(0.06172839506172839,0,0,0.06172839506172839,37.03703703703704,0)" xlink:href="#aQ"/></g><path fill="#3a414a" d="M47-170H22l-4-78h33" id="bc"/><g id="f"><use transform="matrix(0.06172839506172839,0,0,0.06172839506172839,0,0)" xlink:href="#aK"/><use transform="matrix(0.06172839506172839,0,0,0.06172839506172839,15.987654320987653,0)" xlink:href="#aL"/><use transform="matrix(0.06172839506172839,0,0,0.06172839506172839,28.333333333333332,0)" xlink:href="#aM"/><use transform="matrix(0.06172839506172839,0,0,0.06172839506172839,39.44444444444444,0)" xlink:href="#aN"/><use transform="matrix(0.06172839506172839,0,0,0.06172839506172839,45.617283950617285,0)" xlink:href="#aP"/><use transform="matrix(0.06172839506172839,0,0,0.06172839506172839,64.07407407407408,0)" xlink:href="#aQ"/><use transform="matrix(0.06172839506172839,0,0,0.06172839506172839,76.41975308641976,0)" xlink:href="#aR"/><use transform="matrix(0.06172839506172839,0,0,0.06172839506172839,83.76543209876544,0)" xlink:href="#bc"/><use transform="matrix(0.06172839506172839,0,0,0.06172839506172839,87.96296296296298,0)" xlink:href="#aM"/></g><path fill="#3a414a" d="M115-194c53 0 69 39 70 98 0 66-23 100-70 100C84 3 66-7 56-30L54 0H23l1-261h32v101c10-23 28-34 59-34zm-8 174c40 0 45-34 45-75 0-40-5-75-45-74-42 0-51 32-51 76 0 43 10 73 51 73" id="bd"/><path fill="#3a414a" d="M143 0L79-87 56-68V0H24v-261h32v163l83-92h37l-77 82L181 0h-38" id="be"/><g id="g"><use transform="matrix(0.06172839506172839,0,0,0.06172839506172839,0,0)" xlink:href="#bd"/><use transform="matrix(0.06172839506172839,0,0,0.06172839506172839,12.345679012345679,0)" xlink:href="#aU"/><use transform="matrix(0.06172839506172839,0,0,0.06172839506172839,24.691358024691358,0)" xlink:href="#aW"/><use transform="matrix(0.06172839506172839,0,0,0.06172839506172839,37.03703703703704,0)" xlink:href="#be"/></g><path fill="#3a414a" d="M197 0v-115H63V0H30v-248h33v105h134v-105h34V0h-34" id="bf"/><path fill="#3a414a" d="M24 0v-261h32V0H24" id="bg"/><g id="h"><use transform="matrix(0.06172839506172839,0,0,0.06172839506172839,0,0)" xlink:href="#bf"/><use transform="matrix(0.06172839506172839,0,0,0.06172839506172839,15.987654320987653,0)" xlink:href="#aO"/><use transform="matrix(0.06172839506172839,0,0,0.06172839506172839,28.333333333333332,0)" xlink:href="#aN"/><use transform="matrix(0.06172839506172839,0,0,0.06172839506172839,34.50617283950617,0)" xlink:href="#aQ"/><use transform="matrix(0.06172839506172839,0,0,0.06172839506172839,46.85185185185185,0)" xlink:href="#bg"/><use transform="matrix(0.06172839506172839,0,0,0.06172839506172839,51.72839506172839,0)" xlink:href="#bc"/><use transform="matrix(0.06172839506172839,0,0,0.06172839506172839,55.925925925925924,0)" xlink:href="#aM"/></g><g id="i"><use transform="matrix(0.06172839506172839,0,0,0.06172839506172839,0,0)" xlink:href="#bd"/><use transform="matrix(0.06172839506172839,0,0,0.06172839506172839,12.345679012345679,0)" xlink:href="#aU"/><use transform="matrix(0.06172839506172839,0,0,0.06172839506172839,24.691358024691358,0)" xlink:href="#aW"/><use transform="matrix(0.06172839506172839,0,0,0.06172839506172839,37.03703703703704,0)" xlink:href="#be"/></g><path fill="#3a414a" d="M185-189c-5-48-123-54-124 2 14 75 158 14 163 119 3 78-121 87-175 55-17-10-28-26-33-46l33-7c5 56 141 63 141-1 0-78-155-14-162-118-5-82 145-84 179-34 5 7 8 16 11 25" id="bh"/><g id="j"><use transform="matrix(0.06172839506172839,0,0,0.06172839506172839,0,0)" xlink:href="#bh"/><use transform="matrix(0.06172839506172839,0,0,0.06172839506172839,14.814814814814813,0)" xlink:href="#aN"/><use transform="matrix(0.06172839506172839,0,0,0.06172839506172839,20.98765432098765,0)" xlink:href="#aU"/><use transform="matrix(0.06172839506172839,0,0,0.06172839506172839,33.33333333333333,0)" xlink:href="#aR"/><use transform="matrix(0.06172839506172839,0,0,0.06172839506172839,40.679012345679006,0)" xlink:href="#aN"/></g><path d="M212-179c-10-28-35-45-73-45-59 0-87 40-87 99 0 60 29 101 89 101 43 0 62-24 78-52l27 14C228-24 195 4 139 4 59 4 22-46 18-125c-6-104 99-153 187-111 19 9 31 26 39 46" id="bi"/><path d="M106-169C34-169 62-67 57 0H25v-261h32l-1 103c12-21 28-36 61-36 89 0 53 116 60 194h-32v-121c2-32-8-49-39-48" id="bj"/><path d="M100-194c62-1 85 37 85 99 1 63-27 99-86 99S16-35 15-95c0-66 28-99 85-99zM99-20c44 1 53-31 53-75 0-43-8-75-51-75s-53 32-53 75 10 74 51 75" id="bk"/><path d="M135-143c-3-34-86-38-87 0 15 53 115 12 119 90S17 21 10-45l28-5c4 36 97 45 98 0-10-56-113-15-118-90-4-57 82-63 122-42 12 7 21 19 24 35" id="bl"/><path d="M100-194c63 0 86 42 84 106H49c0 40 14 67 53 68 26 1 43-12 49-29l28 8c-11 28-37 45-77 45C44 4 14-33 15-96c1-61 26-98 85-98zm52 81c6-60-76-77-97-28-3 7-6 17-6 28h103" id="bm"/><g id="k"><use transform="matrix(0.05,0,0,0.05,0,0)" xlink:href="#bi"/><use transform="matrix(0.05,0,0,0.05,12.950000000000001,0)" xlink:href="#bj"/><use transform="matrix(0.05,0,0,0.05,22.950000000000003,0)" xlink:href="#bk"/><use transform="matrix(0.05,0,0,0.05,32.95,0)" xlink:href="#bk"/><use transform="matrix(0.05,0,0,0.05,42.95,0)" xlink:href="#bl"/><use transform="matrix(0.05,0,0,0.05,51.95,0)" xlink:href="#bm"/></g><path d="M85-194c31 0 48 13 60 33l-1-100h32l1 261h-30c-2-10 0-23-3-31C134-8 116 4 85 4 32 4 16-35 15-94c0-66 23-100 70-100zm9 24c-40 0-46 34-46 75 0 40 6 74 45 74 42 0 51-32 51-76 0-42-9-74-50-73" id="bn"/><path d="M141-36C126-15 110 5 73 4 37 3 15-17 15-53c-1-64 63-63 125-63 3-35-9-54-41-54-24 1-41 7-42 31l-33-3c5-37 33-52 76-52 45 0 72 20 72 64v82c-1 20 7 32 28 27v20c-31 9-61-2-59-35zM48-53c0 20 12 33 32 33 41-3 63-29 60-74-43 2-92-5-92 41" id="bo"/><path d="M59-47c-2 24 18 29 38 22v24C64 9 27 4 27-40v-127H5v-23h24l9-43h21v43h35v23H59v120" id="bp"/><g id="l"><use transform="matrix(0.05,0,0,0.05,0,0)" xlink:href="#bn"/><use transform="matrix(0.05,0,0,0.05,10,0)" xlink:href="#bo"/><use transform="matrix(0.05,0,0,0.05,20,0)" xlink:href="#bp"/><use transform="matrix(0.05,0,0,0.05,25,0)" xlink:href="#bm"/></g><path d="M101-234c-31-9-42 10-38 44h38v23H63V0H32v-167H5v-23h27c-7-52 17-82 69-68v24" id="bq"/><g id="m"><use transform="matrix(0.05,0,0,0.05,0,0)" xlink:href="#bk"/><use transform="matrix(0.05,0,0,0.05,10,0)" xlink:href="#bq"/></g><path d="M179-190L93 31C79 59 56 82 12 73V49c39 6 53-20 64-50L1-190h34L92-34l54-156h33" id="br"/><g id="n"><use transform="matrix(0.05,0,0,0.05,0,0)" xlink:href="#bl"/><use transform="matrix(0.05,0,0,0.05,9,0)" xlink:href="#bp"/><use transform="matrix(0.05,0,0,0.05,14,0)" xlink:href="#bo"/><use transform="matrix(0.05,0,0,0.05,24,0)" xlink:href="#br"/></g><path d="M24-231v-30h32v30H24zM24 0v-190h32V0H24" id="bs"/><path d="M117-194c89-4 53 116 60 194h-32v-121c0-31-8-49-39-48C34-167 62-67 57 0H25l-1-190h30c1 10-1 24 2 32 11-22 29-35 61-36" id="bt"/><g id="o"><use transform="matrix(0.05,0,0,0.05,0,0)" xlink:href="#bs"/><use transform="matrix(0.05,0,0,0.05,3.95,0)" xlink:href="#bt"/></g><path d="M24 0v-261h32V0H24" id="bu"/><g id="p"><use transform="matrix(0.05,0,0,0.05,0,0)" xlink:href="#bj"/><use transform="matrix(0.05,0,0,0.05,10,0)" xlink:href="#bk"/><use transform="matrix(0.05,0,0,0.05,20,0)" xlink:href="#bp"/><use transform="matrix(0.05,0,0,0.05,25,0)" xlink:href="#bm"/><use transform="matrix(0.05,0,0,0.05,35,0)" xlink:href="#bu"/></g><path d="M108 0H70L1-190h34L89-25l56-165h34" id="bv"/><path d="M115-194c53 0 69 39 70 98 0 66-23 100-70 100C84 3 66-7 56-30L54 0H23l1-261h32v101c10-23 28-34 59-34zm-8 174c40 0 45-34 45-75 0-40-5-75-45-74-42 0-51 32-51 76 0 43 10 73 51 73" id="bw"/><g id="q"><use transform="matrix(0.05,0,0,0.05,0,0)" xlink:href="#bo"/><use transform="matrix(0.05,0,0,0.05,10,0)" xlink:href="#bv"/><use transform="matrix(0.05,0,0,0.05,19,0)" xlink:href="#bo"/><use transform="matrix(0.05,0,0,0.05,29,0)" xlink:href="#bs"/><use transform="matrix(0.05,0,0,0.05,32.95,0)" xlink:href="#bu"/><use transform="matrix(0.05,0,0,0.05,36.900000000000006,0)" xlink:href="#bo"/><use transform="matrix(0.05,0,0,0.05,46.900000000000006,0)" xlink:href="#bw"/><use transform="matrix(0.05,0,0,0.05,56.900000000000006,0)" xlink:href="#bu"/><use transform="matrix(0.05,0,0,0.05,60.85,0)" xlink:href="#bm"/></g><path d="M114-163C36-179 61-72 57 0H25l-1-190h30c1 12-1 29 2 39 6-27 23-49 58-41v29" id="bx"/><path d="M210-169c-67 3-38 105-44 169h-31v-121c0-29-5-50-35-48C34-165 62-65 56 0H25l-1-190h30c1 10-1 24 2 32 10-44 99-50 107 0 11-21 27-35 58-36 85-2 47 119 55 194h-31v-121c0-29-5-49-35-48" id="by"/><g id="r"><use transform="matrix(0.05,0,0,0.05,0,0)" xlink:href="#bx"/><use transform="matrix(0.05,0,0,0.05,5.95,0)" xlink:href="#bk"/><use transform="matrix(0.05,0,0,0.05,15.949999999999998,0)" xlink:href="#bk"/><use transform="matrix(0.05,0,0,0.05,25.950000000000003,0)" xlink:href="#by"/></g><path d="M185-189c-5-48-123-54-124 2 14 75 158 14 163 119 3 78-121 87-175 55-17-10-28-26-33-46l33-7c5 56 141 63 141-1 0-78-155-14-162-118-5-82 145-84 179-34 5 7 8 16 11 25" id="bz"/><g id="s"><use transform="matrix(0.05,0,0,0.05,0,0)" xlink:href="#bz"/><use transform="matrix(0.05,0,0,0.05,12,0)" xlink:href="#bm"/><use transform="matrix(0.05,0,0,0.05,22,0)" xlink:href="#bt"/><use transform="matrix(0.05,0,0,0.05,32,0)" xlink:href="#bn"/></g><g id="t"><use transform="matrix(0.05,0,0,0.05,0,0)" xlink:href="#bx"/><use transform="matrix(0.05,0,0,0.05,5.95,0)" xlink:href="#bm"/><use transform="matrix(0.05,0,0,0.05,15.949999999999998,0)" xlink:href="#bl"/><use transform="matrix(0.05,0,0,0.05,24.95,0)" xlink:href="#bm"/><use transform="matrix(0.05,0,0,0.05,34.95,0)" xlink:href="#bx"/><use transform="matrix(0.05,0,0,0.05,40.900000000000006,0)" xlink:href="#bv"/><use transform="matrix(0.05,0,0,0.05,49.900000000000006,0)" xlink:href="#bo"/><use transform="matrix(0.05,0,0,0.05,59.900000000000006,0)" xlink:href="#bp"/><use transform="matrix(0.05,0,0,0.05,64.9,0)" xlink:href="#bs"/><use transform="matrix(0.05,0,0,0.05,68.85000000000001,0)" xlink:href="#bk"/><use transform="matrix(0.05,0,0,0.05,78.85000000000001,0)" xlink:href="#bt"/></g><path d="M145-31C134-9 116 4 85 4 32 4 16-35 15-94c0-59 17-99 70-100 32-1 48 14 60 33 0-11-1-24 2-32h30l-1 268h-32zM93-21c41 0 51-33 51-76s-8-73-50-73c-40 0-46 35-46 75s5 74 45 74" id="bA"/><path d="M84 4C-5 8 30-112 23-190h32v120c0 31 7 50 39 49 72-2 45-101 50-169h31l1 190h-30c-1-10 1-25-2-33-11 22-28 36-60 37" id="bB"/><g id="u"><use transform="matrix(0.05,0,0,0.05,0,0)" xlink:href="#bx"/><use transform="matrix(0.05,0,0,0.05,5.95,0)" xlink:href="#bm"/><use transform="matrix(0.05,0,0,0.05,15.949999999999998,0)" xlink:href="#bA"/><use transform="matrix(0.05,0,0,0.05,25.950000000000003,0)" xlink:href="#bB"/><use transform="matrix(0.05,0,0,0.05,35.95,0)" xlink:href="#bm"/><use transform="matrix(0.05,0,0,0.05,45.95,0)" xlink:href="#bl"/><use transform="matrix(0.05,0,0,0.05,54.95,0)" xlink:href="#bp"/></g><path d="M137 0h-34L2-248h35l83 218 83-218h36" id="bC"/><g id="v"><use transform="matrix(0.05,0,0,0.05,0,0)" xlink:href="#bC"/><use transform="matrix(0.05,0,0,0.05,11,0)" xlink:href="#bm"/><use transform="matrix(0.05,0,0,0.05,21,0)" xlink:href="#bx"/><use transform="matrix(0.05,0,0,0.05,26.950000000000003,0)" xlink:href="#bs"/><use transform="matrix(0.05,0,0,0.05,30.899999999999995,0)" xlink:href="#bq"/><use transform="matrix(0.05,0,0,0.05,35.9,0)" xlink:href="#br"/></g><g id="w"><use transform="matrix(0.05,0,0,0.05,0,0)" xlink:href="#bx"/><use transform="matrix(0.05,0,0,0.05,5.95,0)" xlink:href="#bk"/><use transform="matrix(0.05,0,0,0.05,15.949999999999998,0)" xlink:href="#bk"/><use transform="matrix(0.05,0,0,0.05,25.950000000000003,0)" xlink:href="#by"/></g><g id="x"><use transform="matrix(0.05,0,0,0.05,0,0)" xlink:href="#bo"/><use transform="matrix(0.05,0,0,0.05,10,0)" xlink:href="#bv"/><use transform="matrix(0.05,0,0,0.05,19,0)" xlink:href="#bo"/><use transform="matrix(0.05,0,0,0.05,29,0)" xlink:href="#bs"/><use transform="matrix(0.05,0,0,0.05,32.95,0)" xlink:href="#bu"/><use transform="matrix(0.05,0,0,0.05,36.900000000000006,0)" xlink:href="#bs"/><use transform="matrix(0.05,0,0,0.05,40.85000000000001,0)" xlink:href="#bw"/><use transform="matrix(0.05,0,0,0.05,50.85000000000001,0)" xlink:href="#bs"/><use transform="matrix(0.05,0,0,0.05,54.80000000000001,0)" xlink:href="#bu"/><use transform="matrix(0.05,0,0,0.05,58.750000000000014,0)" xlink:href="#bs"/><use transform="matrix(0.05,0,0,0.05,62.70000000000002,0)" xlink:href="#bp"/><use transform="matrix(0.05,0,0,0.05,67.70000000000002,0)" xlink:href="#br"/></g><g id="y"><use transform="matrix(0.06172839506172839,0,0,0.06172839506172839,0,0)" xlink:href="#aS"/><use transform="matrix(0.06172839506172839,0,0,0.06172839506172839,15.987654320987653,0)" xlink:href="#aQ"/><use transform="matrix(0.06172839506172839,0,0,0.06172839506172839,28.333333333333332,0)" xlink:href="#aM"/><use transform="matrix(0.06172839506172839,0,0,0.06172839506172839,39.44444444444444,0)" xlink:href="#aQ"/><use transform="matrix(0.06172839506172839,0,0,0.06172839506172839,51.79012345679012,0)" xlink:href="#aR"/><use transform="matrix(0.06172839506172839,0,0,0.06172839506172839,59.1358024691358,0)" xlink:href="#aT"/><use transform="matrix(0.06172839506172839,0,0,0.06172839506172839,70.24691358024691,0)" xlink:href="#aU"/><use transform="matrix(0.06172839506172839,0,0,0.06172839506172839,82.5925925925926,0)" xlink:href="#aN"/><use transform="matrix(0.06172839506172839,0,0,0.06172839506172839,88.76543209876543,0)" xlink:href="#aV"/><use transform="matrix(0.06172839506172839,0,0,0.06172839506172839,93.64197530864197,0)" xlink:href="#aO"/><use transform="matrix(0.06172839506172839,0,0,0.06172839506172839,105.98765432098766,0)" xlink:href="#aW"/></g><path fill="#3a414a" d="M145-31C134-9 116 4 85 4 32 4 16-35 15-94c0-59 17-99 70-100 32-1 48 14 60 33 0-11-1-24 2-32h30l-1 268h-32zM93-21c41 0 51-33 51-76s-8-73-50-73c-40 0-46 35-46 75s5 74 45 74" id="bD"/><g id="z"><use transform="matrix(0.06172839506172839,0,0,0.06172839506172839,0,0)" xlink:href="#aR"/><use transform="matrix(0.06172839506172839,0,0,0.06172839506172839,7.345679012345679,0)" xlink:href="#aQ"/><use transform="matrix(0.06172839506172839,0,0,0.06172839506172839,19.691358024691358,0)" xlink:href="#bD"/><use transform="matrix(0.06172839506172839,0,0,0.06172839506172839,32.03703703703704,0)" xlink:href="#aL"/><use transform="matrix(0.06172839506172839,0,0,0.06172839506172839,44.382716049382715,0)" xlink:href="#aQ"/><use transform="matrix(0.06172839506172839,0,0,0.06172839506172839,56.72839506172839,0)" xlink:href="#aM"/><use transform="matrix(0.06172839506172839,0,0,0.06172839506172839,67.8395061728395,0)" xlink:href="#aN"/></g><path fill="#333" d="M24 0v-248h52V0H24" id="bE"/><path fill="#333" d="M137-138c1-29-70-34-71-4 15 46 118 7 119 86 1 83-164 76-172 9l43-7c4 19 20 25 44 25 33 8 57-30 24-41C81-84 22-81 20-136c-2-80 154-74 161-7" id="bF"/><g id="A"><use transform="matrix(0.04938271604938272,0,0,0.04938271604938272,0,0)" xlink:href="#bE"/><use transform="matrix(0.04938271604938272,0,0,0.04938271604938272,4.938271604938272,0)" xlink:href="#bF"/></g><path fill="#333" d="M135-150c-39-12-60 13-60 57V0H25l-1-190h47c2 13-1 29 3 40 6-28 27-53 61-41v41" id="bG"/><path fill="#333" d="M110-194c64 0 96 36 96 99 0 64-35 99-97 99-61 0-95-36-95-99 0-62 34-99 96-99zm-1 164c35 0 45-28 45-65 0-40-10-65-43-65-34 0-45 26-45 65 0 36 10 65 43 65" id="bH"/><path fill="#333" d="M220-157c-53 9-28 100-34 157h-49v-107c1-27-5-49-29-50C55-147 81-57 75 0H25l-1-190h47c2 12-1 28 3 38 10-53 101-56 108 0 13-22 24-43 59-42 82 1 51 116 57 194h-49v-107c-1-25-5-48-29-50" id="bI"/><g id="B"><use transform="matrix(0.04938271604938272,0,0,0.04938271604938272,0,0)" xlink:href="#bG"/><use transform="matrix(0.04938271604938272,0,0,0.04938271604938272,6.913580246913581,0)" xlink:href="#bH"/><use transform="matrix(0.04938271604938272,0,0,0.04938271604938272,17.728395061728396,0)" xlink:href="#bH"/><use transform="matrix(0.04938271604938272,0,0,0.04938271604938272,28.543209876543205,0)" xlink:href="#bI"/></g><path fill="#333" d="M133-34C117-15 103 5 69 4 32 3 11-16 11-54c-1-60 55-63 116-61 1-26-3-47-28-47-18 1-26 9-28 27l-52-2c7-38 36-58 82-57s74 22 75 68l1 82c-1 14 12 18 25 15v27c-30 8-71 5-69-32zm-48 3c29 0 43-24 42-57-32 0-66-3-65 30 0 17 8 27 23 27" id="bJ"/><path fill="#333" d="M128 0H69L1-190h53L99-40l48-150h52" id="bK"/><path fill="#333" d="M25-224v-37h50v37H25zM25 0v-190h50V0H25" id="bL"/><path fill="#333" d="M25 0v-261h50V0H25" id="bM"/><path fill="#333" d="M135-194c52 0 70 43 70 98 0 56-19 99-73 100-30 1-46-15-58-35L72 0H24l1-261h50v104c11-23 29-37 60-37zM114-30c31 0 40-27 40-66 0-37-7-63-39-63s-41 28-41 65c0 36 8 64 40 64" id="bN"/><path fill="#333" d="M185-48c-13 30-37 53-82 52C43 2 14-33 14-96s30-98 90-98c62 0 83 45 84 108H66c0 31 8 55 39 56 18 0 30-7 34-22zm-45-69c5-46-57-63-70-21-2 6-4 13-4 21h74" id="bO"/><path fill="#333" d="M110-251c83-7 118 89 53 130-17 10-36 21-38 46H78c2-56 65-53 71-103 2-21-15-35-38-34-25 1-41 14-44 38l-50-2c6-48 39-70 93-75zM77 0v-47h51V0H77" id="bP"/><g id="C"><use transform="matrix(0.04938271604938272,0,0,0.04938271604938272,0,0)" xlink:href="#bJ"/><use transform="matrix(0.04938271604938272,0,0,0.04938271604938272,9.876543209876544,0)" xlink:href="#bK"/><use transform="matrix(0.04938271604938272,0,0,0.04938271604938272,19.75308641975309,0)" xlink:href="#bJ"/><use transform="matrix(0.04938271604938272,0,0,0.04938271604938272,29.629629629629633,0)" xlink:href="#bL"/><use transform="matrix(0.04938271604938272,0,0,0.04938271604938272,34.567901234567906,0)" xlink:href="#bM"/><use transform="matrix(0.04938271604938272,0,0,0.04938271604938272,39.50617283950618,0)" xlink:href="#bJ"/><use transform="matrix(0.04938271604938272,0,0,0.04938271604938272,49.38271604938272,0)" xlink:href="#bN"/><use transform="matrix(0.04938271604938272,0,0,0.04938271604938272,60.19753086419754,0)" xlink:href="#bM"/><use transform="matrix(0.04938271604938272,0,0,0.04938271604938272,65.13580246913581,0)" xlink:href="#bO"/><use transform="matrix(0.04938271604938272,0,0,0.04938271604938272,75.01234567901236,0)" xlink:href="#bP"/></g><path fill="#333" d="M175 0L67-191c6 58 2 128 3 191H24v-248h59L193-55c-6-58-2-129-3-193h46V0h-61" id="bQ"/><g id="D"><use transform="matrix(0.04938271604938272,0,0,0.04938271604938272,0,0)" xlink:href="#bQ"/><use transform="matrix(0.04938271604938272,0,0,0.04938271604938272,12.790123456790125,0)" xlink:href="#bH"/></g><path fill="#3a414a" d="M30-248c118-7 216 8 213 122C240-48 200 0 122 0H30v-248zM63-27c89 8 146-16 146-99s-60-101-146-95v194" id="bR"/><g id="E"><use transform="matrix(0.06172839506172839,0,0,0.06172839506172839,0,0)" xlink:href="#bR"/><use transform="matrix(0.06172839506172839,0,0,0.06172839506172839,15.987654320987653,0)" xlink:href="#aQ"/><use transform="matrix(0.06172839506172839,0,0,0.06172839506172839,28.333333333333332,0)" xlink:href="#aW"/><use transform="matrix(0.06172839506172839,0,0,0.06172839506172839,40.67901234567901,0)" xlink:href="#aX"/></g><g id="F"><use transform="matrix(0.06172839506172839,0,0,0.06172839506172839,0,0)" xlink:href="#aR"/><use transform="matrix(0.06172839506172839,0,0,0.06172839506172839,7.345679012345679,0)" xlink:href="#aQ"/><use transform="matrix(0.06172839506172839,0,0,0.06172839506172839,19.691358024691358,0)" xlink:href="#aM"/><use transform="matrix(0.06172839506172839,0,0,0.06172839506172839,30.80246913580247,0)" xlink:href="#aQ"/><use transform="matrix(0.06172839506172839,0,0,0.06172839506172839,43.148148148148145,0)" xlink:href="#aR"/><use transform="matrix(0.06172839506172839,0,0,0.06172839506172839,50.49382716049382,0)" xlink:href="#aT"/><use transform="matrix(0.06172839506172839,0,0,0.06172839506172839,61.60493827160494,0)" xlink:href="#aU"/><use transform="matrix(0.06172839506172839,0,0,0.06172839506172839,73.95061728395062,0)" xlink:href="#aN"/><use transform="matrix(0.06172839506172839,0,0,0.06172839506172839,80.12345679012346,0)" xlink:href="#aV"/><use transform="matrix(0.06172839506172839,0,0,0.06172839506172839,85,0)" xlink:href="#aO"/><use transform="matrix(0.06172839506172839,0,0,0.06172839506172839,97.34567901234568,0)" xlink:href="#aW"/></g><path fill="#3a414a" d="M240 0l2-218c-23 76-54 145-80 218h-23L58-218 59 0H30v-248h44l77 211c21-75 51-140 76-211h43V0h-30" id="bS"/><g id="G"><use transform="matrix(0.06172839506172839,0,0,0.06172839506172839,0,0)" xlink:href="#bS"/><use transform="matrix(0.06172839506172839,0,0,0.06172839506172839,18.456790123456788,0)" xlink:href="#aU"/><use transform="matrix(0.06172839506172839,0,0,0.06172839506172839,30.80246913580247,0)" xlink:href="#be"/><use transform="matrix(0.06172839506172839,0,0,0.06172839506172839,41.91358024691358,0)" xlink:href="#aQ"/></g><path fill="#333" d="M146-102V0H94v-102L6-248h54l60 105 60-105h54" id="bT"/><g id="H"><use transform="matrix(0.04938271604938272,0,0,0.04938271604938272,0,0)" xlink:href="#bT"/><use transform="matrix(0.04938271604938272,0,0,0.04938271604938272,10.864197530864198,0)" xlink:href="#bO"/><use transform="matrix(0.04938271604938272,0,0,0.04938271604938272,20.74074074074074,0)" xlink:href="#bF"/></g><g id="I"><use transform="matrix(0.06172839506172839,0,0,0.06172839506172839,0,0)" xlink:href="#aS"/><use transform="matrix(0.06172839506172839,0,0,0.06172839506172839,15.987654320987653,0)" xlink:href="#aQ"/><use transform="matrix(0.06172839506172839,0,0,0.06172839506172839,28.333333333333332,0)" xlink:href="#aZ"/><use transform="matrix(0.06172839506172839,0,0,0.06172839506172839,39.44444444444444,0)" xlink:href="#aQ"/><use transform="matrix(0.06172839506172839,0,0,0.06172839506172839,51.79012345679012,0)" xlink:href="#aV"/><use transform="matrix(0.06172839506172839,0,0,0.06172839506172839,56.666666666666664,0)" xlink:href="#aT"/><use transform="matrix(0.06172839506172839,0,0,0.06172839506172839,67.77777777777777,0)" xlink:href="#aQ"/></g><g id="J"><use transform="matrix(0.06172839506172839,0,0,0.06172839506172839,0,0)" xlink:href="#aR"/><use transform="matrix(0.06172839506172839,0,0,0.06172839506172839,7.345679012345679,0)" xlink:href="#aQ"/><use transform="matrix(0.06172839506172839,0,0,0.06172839506172839,19.691358024691358,0)" xlink:href="#aM"/><use transform="matrix(0.06172839506172839,0,0,0.06172839506172839,30.80246913580247,0)" xlink:href="#aQ"/><use transform="matrix(0.06172839506172839,0,0,0.06172839506172839,43.148148148148145,0)" xlink:href="#aR"/><use transform="matrix(0.06172839506172839,0,0,0.06172839506172839,50.49382716049382,0)" xlink:href="#aT"/><use transform="matrix(0.06172839506172839,0,0,0.06172839506172839,61.60493827160494,0)" xlink:href="#aU"/><use transform="matrix(0.06172839506172839,0,0,0.06172839506172839,73.95061728395062,0)" xlink:href="#aN"/><use transform="matrix(0.06172839506172839,0,0,0.06172839506172839,80.12345679012346,0)" xlink:href="#aV"/><use transform="matrix(0.06172839506172839,0,0,0.06172839506172839,85,0)" xlink:href="#aO"/><use transform="matrix(0.06172839506172839,0,0,0.06172839506172839,97.34567901234568,0)" xlink:href="#aW"/></g><path fill="#3a414a" d="M85-194c31 0 48 13 60 33l-1-100h32l1 261h-30c-2-10 0-23-3-31C134-8 116 4 85 4 32 4 16-35 15-94c0-66 23-100 70-100zm9 24c-40 0-46 34-46 75 0 40 6 74 45 74 42 0 51-32 51-76 0-42-9-74-50-73" id="bU"/><g id="K"><use transform="matrix(0.06172839506172839,0,0,0.06172839506172839,0,0)" xlink:href="#bU"/><use transform="matrix(0.06172839506172839,0,0,0.06172839506172839,12.345679012345679,0)" xlink:href="#aQ"/><use transform="matrix(0.06172839506172839,0,0,0.06172839506172839,24.691358024691358,0)" xlink:href="#aW"/><use transform="matrix(0.06172839506172839,0,0,0.06172839506172839,37.03703703703704,0)" xlink:href="#aV"/><use transform="matrix(0.06172839506172839,0,0,0.06172839506172839,41.91358024691358,0)" xlink:href="#aU"/><use transform="matrix(0.06172839506172839,0,0,0.06172839506172839,54.25925925925926,0)" xlink:href="#bg"/></g><path fill="#3a414a" d="M30 0v-248h187v28H63v79h144v27H63v87h162V0H30" id="bV"/><g id="L"><use transform="matrix(0.06172839506172839,0,0,0.06172839506172839,0,0)" xlink:href="#bV"/><use transform="matrix(0.06172839506172839,0,0,0.06172839506172839,14.814814814814813,0)" xlink:href="#aW"/><use transform="matrix(0.06172839506172839,0,0,0.06172839506172839,27.160493827160494,0)" xlink:href="#bU"/></g><path fill="#3a414a" d="M101-234c-31-9-42 10-38 44h38v23H63V0H32v-167H5v-23h27c-7-52 17-82 69-68v24" id="bW"/><g id="M"><use transform="matrix(0.06172839506172839,0,0,0.06172839506172839,0,0)" xlink:href="#aZ"/><use transform="matrix(0.06172839506172839,0,0,0.06172839506172839,11.11111111111111,0)" xlink:href="#aO"/><use transform="matrix(0.06172839506172839,0,0,0.06172839506172839,23.45679012345679,0)" xlink:href="#aW"/><use transform="matrix(0.06172839506172839,0,0,0.06172839506172839,35.80246913580247,0)" xlink:href="#bW"/><use transform="matrix(0.06172839506172839,0,0,0.06172839506172839,41.97530864197531,0)" xlink:href="#aV"/><use transform="matrix(0.06172839506172839,0,0,0.06172839506172839,46.851851851851855,0)" xlink:href="#aR"/><use transform="matrix(0.06172839506172839,0,0,0.06172839506172839,54.19753086419753,0)" xlink:href="#aP"/><use transform="matrix(0.06172839506172839,0,0,0.06172839506172839,72.65432098765432,0)" xlink:href="#aU"/><use transform="matrix(0.06172839506172839,0,0,0.06172839506172839,85,0)" xlink:href="#aN"/><use transform="matrix(0.06172839506172839,0,0,0.06172839506172839,91.17283950617283,0)" xlink:href="#aV"/><use transform="matrix(0.06172839506172839,0,0,0.06172839506172839,96.04938271604938,0)" xlink:href="#aO"/><use transform="matrix(0.06172839506172839,0,0,0.06172839506172839,108.39506172839506,0)" xlink:href="#aW"/></g><path fill="#3a414a" d="M16-82v-28h88v28H16" id="bX"/><g id="N"><use transform="matrix(0.06172839506172839,0,0,0.06172839506172839,0,0)" xlink:href="#aQ"/><use transform="matrix(0.06172839506172839,0,0,0.06172839506172839,12.345679012345679,0)" xlink:href="#bX"/><use transform="matrix(0.06172839506172839,0,0,0.06172839506172839,19.691358024691358,0)" xlink:href="#aP"/><use transform="matrix(0.06172839506172839,0,0,0.06172839506172839,38.148148148148145,0)" xlink:href="#aU"/><use transform="matrix(0.06172839506172839,0,0,0.06172839506172839,50.49382716049382,0)" xlink:href="#aV"/><use transform="matrix(0.06172839506172839,0,0,0.06172839506172839,55.37037037037037,0)" xlink:href="#bg"/></g><path fill="#3a414a" d="M206 0h-36l-40-164L89 0H53L-1-190h32L70-26l43-164h34l41 164 42-164h31" id="bY"/><path fill="#3a414a" d="M106-169C34-169 62-67 57 0H25v-261h32l-1 103c12-21 28-36 61-36 89 0 53 116 60 194h-32v-121c2-32-8-49-39-48" id="bZ"/><g id="O"><use transform="matrix(0.06172839506172839,0,0,0.06172839506172839,0,0)" xlink:href="#bY"/><use transform="matrix(0.06172839506172839,0,0,0.06172839506172839,15.987654320987653,0)" xlink:href="#aV"/><use transform="matrix(0.06172839506172839,0,0,0.06172839506172839,20.864197530864196,0)" xlink:href="#aN"/><use transform="matrix(0.06172839506172839,0,0,0.06172839506172839,27.037037037037035,0)" xlink:href="#bZ"/></g><g id="P"><use transform="matrix(0.06172839506172839,0,0,0.06172839506172839,0,0)" xlink:href="#aV"/><use transform="matrix(0.06172839506172839,0,0,0.06172839506172839,4.876543209876543,0)" xlink:href="#aW"/><use transform="matrix(0.06172839506172839,0,0,0.06172839506172839,17.22222222222222,0)" xlink:href="#aT"/><use transform="matrix(0.06172839506172839,0,0,0.06172839506172839,28.333333333333332,0)" xlink:href="#aO"/><use transform="matrix(0.06172839506172839,0,0,0.06172839506172839,40.67901234567901,0)" xlink:href="#aV"/><use transform="matrix(0.06172839506172839,0,0,0.06172839506172839,45.55555555555556,0)" xlink:href="#aZ"/><use transform="matrix(0.06172839506172839,0,0,0.06172839506172839,56.66666666666667,0)" xlink:href="#aQ"/></g><g id="Q"><use transform="matrix(0.06172839506172839,0,0,0.06172839506172839,0,0)" xlink:href="#aK"/><use transform="matrix(0.06172839506172839,0,0,0.06172839506172839,15.987654320987653,0)" xlink:href="#aO"/><use transform="matrix(0.06172839506172839,0,0,0.06172839506172839,28.333333333333332,0)" xlink:href="#aW"/><use transform="matrix(0.06172839506172839,0,0,0.06172839506172839,40.67901234567901,0)" xlink:href="#bW"/><use transform="matrix(0.06172839506172839,0,0,0.06172839506172839,46.851851851851855,0)" xlink:href="#aV"/><use transform="matrix(0.06172839506172839,0,0,0.06172839506172839,51.7283950617284,0)" xlink:href="#aR"/><use transform="matrix(0.06172839506172839,0,0,0.06172839506172839,59.074074074074076,0)" xlink:href="#aP"/><use transform="matrix(0.06172839506172839,0,0,0.06172839506172839,77.53086419753086,0)" xlink:href="#aU"/><use transform="matrix(0.06172839506172839,0,0,0.06172839506172839,89.87654320987654,0)" xlink:href="#aN"/><use transform="matrix(0.06172839506172839,0,0,0.06172839506172839,96.04938271604938,0)" xlink:href="#aV"/><use transform="matrix(0.06172839506172839,0,0,0.06172839506172839,100.92592592592592,0)" xlink:href="#aO"/><use transform="matrix(0.06172839506172839,0,0,0.06172839506172839,113.27160493827161,0)" xlink:href="#aW"/></g><g id="R"><use transform="matrix(0.06172839506172839,0,0,0.06172839506172839,0,0)" xlink:href="#aQ"/><use transform="matrix(0.06172839506172839,0,0,0.06172839506172839,12.345679012345679,0)" xlink:href="#bX"/><use transform="matrix(0.06172839506172839,0,0,0.06172839506172839,19.691358024691358,0)" xlink:href="#aP"/><use transform="matrix(0.06172839506172839,0,0,0.06172839506172839,38.148148148148145,0)" xlink:href="#aU"/><use transform="matrix(0.06172839506172839,0,0,0.06172839506172839,50.49382716049382,0)" xlink:href="#aV"/><use transform="matrix(0.06172839506172839,0,0,0.06172839506172839,55.37037037037037,0)" xlink:href="#bg"/></g><g id="S"><use transform="matrix(0.06172839506172839,0,0,0.06172839506172839,0,0)" xlink:href="#bY"/><use transform="matrix(0.06172839506172839,0,0,0.06172839506172839,15.987654320987653,0)" xlink:href="#aV"/><use transform="matrix(0.06172839506172839,0,0,0.06172839506172839,20.864197530864196,0)" xlink:href="#aN"/><use transform="matrix(0.06172839506172839,0,0,0.06172839506172839,27.037037037037035,0)" xlink:href="#bZ"/></g><g id="T"><use transform="matrix(0.06172839506172839,0,0,0.06172839506172839,0,0)" xlink:href="#aV"/><use transform="matrix(0.06172839506172839,0,0,0.06172839506172839,4.876543209876543,0)" xlink:href="#aW"/><use transform="matrix(0.06172839506172839,0,0,0.06172839506172839,17.22222222222222,0)" xlink:href="#aT"/><use transform="matrix(0.06172839506172839,0,0,0.06172839506172839,28.333333333333332,0)" xlink:href="#aO"/><use transform="matrix(0.06172839506172839,0,0,0.06172839506172839,40.67901234567901,0)" xlink:href="#aV"/><use transform="matrix(0.06172839506172839,0,0,0.06172839506172839,45.55555555555556,0)" xlink:href="#aZ"/><use transform="matrix(0.06172839506172839,0,0,0.06172839506172839,56.66666666666667,0)" xlink:href="#aQ"/></g><g id="U"><use transform="matrix(0.06172839506172839,0,0,0.06172839506172839,0,0)" xlink:href="#aS"/><use transform="matrix(0.06172839506172839,0,0,0.06172839506172839,15.987654320987653,0)" xlink:href="#aQ"/><use transform="matrix(0.06172839506172839,0,0,0.06172839506172839,28.333333333333332,0)" xlink:href="#bD"/><use transform="matrix(0.06172839506172839,0,0,0.06172839506172839,40.67901234567901,0)" xlink:href="#aL"/><use transform="matrix(0.06172839506172839,0,0,0.06172839506172839,53.02469135802469,0)" xlink:href="#aQ"/><use transform="matrix(0.06172839506172839,0,0,0.06172839506172839,65.37037037037037,0)" xlink:href="#aM"/><use transform="matrix(0.06172839506172839,0,0,0.06172839506172839,76.48148148148148,0)" xlink:href="#aN"/></g><g id="V"><use transform="matrix(0.06172839506172839,0,0,0.06172839506172839,0,0)" xlink:href="#aZ"/><use transform="matrix(0.06172839506172839,0,0,0.06172839506172839,11.11111111111111,0)" xlink:href="#aR"/><use transform="matrix(0.06172839506172839,0,0,0.06172839506172839,18.45679012345679,0)" xlink:href="#aQ"/><use transform="matrix(0.06172839506172839,0,0,0.06172839506172839,30.80246913580247,0)" xlink:href="#aU"/><use transform="matrix(0.06172839506172839,0,0,0.06172839506172839,43.148148148148145,0)" xlink:href="#aN"/><use transform="matrix(0.06172839506172839,0,0,0.06172839506172839,49.32098765432099,0)" xlink:href="#aV"/><use transform="matrix(0.06172839506172839,0,0,0.06172839506172839,54.19753086419753,0)" xlink:href="#aO"/><use transform="matrix(0.06172839506172839,0,0,0.06172839506172839,66.54320987654322,0)" xlink:href="#aW"/></g><g id="W"><use transform="matrix(0.06172839506172839,0,0,0.06172839506172839,0,0)" xlink:href="#aO"/><use transform="matrix(0.06172839506172839,0,0,0.06172839506172839,12.345679012345679,0)" xlink:href="#bW"/></g><g id="X"><use transform="matrix(0.06172839506172839,0,0,0.06172839506172839,0,0)" xlink:href="#aV"/><use transform="matrix(0.06172839506172839,0,0,0.06172839506172839,4.876543209876543,0)" xlink:href="#aW"/><use transform="matrix(0.06172839506172839,0,0,0.06172839506172839,17.22222222222222,0)" xlink:href="#aT"/><use transform="matrix(0.06172839506172839,0,0,0.06172839506172839,28.333333333333332,0)" xlink:href="#aO"/><use transform="matrix(0.06172839506172839,0,0,0.06172839506172839,40.67901234567901,0)" xlink:href="#aV"/><use transform="matrix(0.06172839506172839,0,0,0.06172839506172839,45.55555555555556,0)" xlink:href="#aZ"/><use transform="matrix(0.06172839506172839,0,0,0.06172839506172839,56.66666666666667,0)" xlink:href="#aQ"/></g><g id="Y"><use transform="matrix(0.06172839506172839,0,0,0.06172839506172839,0,0)" xlink:href="#aV"/><use transform="matrix(0.06172839506172839,0,0,0.06172839506172839,4.876543209876543,0)" xlink:href="#aW"/></g><g id="Z"><use transform="matrix(0.06172839506172839,0,0,0.06172839506172839,0,0)" xlink:href="#aU"/><use transform="matrix(0.06172839506172839,0,0,0.06172839506172839,12.345679012345679,0)" xlink:href="#aZ"/><use transform="matrix(0.06172839506172839,0,0,0.06172839506172839,23.45679012345679,0)" xlink:href="#aZ"/><use transform="matrix(0.06172839506172839,0,0,0.06172839506172839,34.5679012345679,0)" xlink:href="#aO"/><use transform="matrix(0.06172839506172839,0,0,0.06172839506172839,46.913580246913575,0)" xlink:href="#aL"/><use transform="matrix(0.06172839506172839,0,0,0.06172839506172839,59.25925925925925,0)" xlink:href="#aW"/><use transform="matrix(0.06172839506172839,0,0,0.06172839506172839,71.60493827160494,0)" xlink:href="#aN"/><use transform="matrix(0.06172839506172839,0,0,0.06172839506172839,77.77777777777777,0)" xlink:href="#aV"/><use transform="matrix(0.06172839506172839,0,0,0.06172839506172839,82.65432098765432,0)" xlink:href="#aW"/><use transform="matrix(0.06172839506172839,0,0,0.06172839506172839,95,0)" xlink:href="#ba"/></g><g id="aa"><use transform="matrix(0.06172839506172839,0,0,0.06172839506172839,0,0)" xlink:href="#aK"/><use transform="matrix(0.06172839506172839,0,0,0.06172839506172839,15.987654320987653,0)" xlink:href="#aR"/><use transform="matrix(0.06172839506172839,0,0,0.06172839506172839,23.333333333333332,0)" xlink:href="#aQ"/><use transform="matrix(0.06172839506172839,0,0,0.06172839506172839,35.67901234567901,0)" xlink:href="#aU"/><use transform="matrix(0.06172839506172839,0,0,0.06172839506172839,48.02469135802469,0)" xlink:href="#aN"/><use transform="matrix(0.06172839506172839,0,0,0.06172839506172839,54.19753086419753,0)" xlink:href="#aQ"/></g><g id="ab"><use transform="matrix(0.06172839506172839,0,0,0.06172839506172839,0,0)" xlink:href="#aU"/><use transform="matrix(0.06172839506172839,0,0,0.06172839506172839,12.345679012345679,0)" xlink:href="#aW"/><use transform="matrix(0.06172839506172839,0,0,0.06172839506172839,24.691358024691358,0)" xlink:href="#bU"/></g><g id="ac"><use transform="matrix(0.06172839506172839,0,0,0.06172839506172839,0,0)" xlink:href="#aM"/><use transform="matrix(0.06172839506172839,0,0,0.06172839506172839,11.11111111111111,0)" xlink:href="#aU"/><use transform="matrix(0.06172839506172839,0,0,0.06172839506172839,23.45679012345679,0)" xlink:href="#aT"/><use transform="matrix(0.06172839506172839,0,0,0.06172839506172839,34.5679012345679,0)" xlink:href="#aQ"/></g><g id="ad"><use transform="matrix(0.06172839506172839,0,0,0.06172839506172839,0,0)" xlink:href="#aV"/><use transform="matrix(0.06172839506172839,0,0,0.06172839506172839,4.876543209876543,0)" xlink:href="#aW"/><use transform="matrix(0.06172839506172839,0,0,0.06172839506172839,17.22222222222222,0)" xlink:href="#aT"/><use transform="matrix(0.06172839506172839,0,0,0.06172839506172839,28.333333333333332,0)" xlink:href="#aO"/><use transform="matrix(0.06172839506172839,0,0,0.06172839506172839,40.67901234567901,0)" xlink:href="#aV"/><use transform="matrix(0.06172839506172839,0,0,0.06172839506172839,45.55555555555556,0)" xlink:href="#aZ"/><use transform="matrix(0.06172839506172839,0,0,0.06172839506172839,56.66666666666667,0)" xlink:href="#aQ"/></g><g id="ae"><use transform="matrix(0.06172839506172839,0,0,0.06172839506172839,0,0)" xlink:href="#bV"/><use transform="matrix(0.06172839506172839,0,0,0.06172839506172839,14.814814814814813,0)" xlink:href="#aW"/><use transform="matrix(0.06172839506172839,0,0,0.06172839506172839,27.160493827160494,0)" xlink:href="#aN"/><use transform="matrix(0.06172839506172839,0,0,0.06172839506172839,33.333333333333336,0)" xlink:href="#aQ"/><use transform="matrix(0.06172839506172839,0,0,0.06172839506172839,45.67901234567901,0)" xlink:href="#aR"/></g><path fill="#3a414a" d="M115-194c55 1 70 41 70 98S169 2 115 4C84 4 66-9 55-30l1 105H24l-1-265h31l2 30c10-21 28-34 59-34zm-8 174c40 0 45-34 45-75s-6-73-45-74c-42 0-51 32-51 76 0 43 10 73 51 73" id="ca"/><g id="af"><use transform="matrix(0.06172839506172839,0,0,0.06172839506172839,0,0)" xlink:href="#ca"/><use transform="matrix(0.06172839506172839,0,0,0.06172839506172839,12.345679012345679,0)" xlink:href="#aQ"/><use transform="matrix(0.06172839506172839,0,0,0.06172839506172839,24.691358024691358,0)" xlink:href="#aR"/><use transform="matrix(0.06172839506172839,0,0,0.06172839506172839,32.03703703703704,0)" xlink:href="#aM"/><use transform="matrix(0.06172839506172839,0,0,0.06172839506172839,43.14814814814815,0)" xlink:href="#aO"/><use transform="matrix(0.06172839506172839,0,0,0.06172839506172839,55.49382716049383,0)" xlink:href="#aW"/><use transform="matrix(0.06172839506172839,0,0,0.06172839506172839,67.8395061728395,0)" xlink:href="#aU"/><use transform="matrix(0.06172839506172839,0,0,0.06172839506172839,80.18518518518519,0)" xlink:href="#bg"/></g><g id="ag"><use transform="matrix(0.06172839506172839,0,0,0.06172839506172839,0,0)" xlink:href="#aV"/><use transform="matrix(0.06172839506172839,0,0,0.06172839506172839,4.876543209876543,0)" xlink:href="#aW"/><use transform="matrix(0.06172839506172839,0,0,0.06172839506172839,17.22222222222222,0)" xlink:href="#bW"/><use transform="matrix(0.06172839506172839,0,0,0.06172839506172839,23.39506172839506,0)" xlink:href="#aO"/><use transform="matrix(0.06172839506172839,0,0,0.06172839506172839,35.74074074074074,0)" xlink:href="#aR"/><use transform="matrix(0.06172839506172839,0,0,0.06172839506172839,43.08641975308642,0)" xlink:href="#aP"/><use transform="matrix(0.06172839506172839,0,0,0.06172839506172839,61.5432098765432,0)" xlink:href="#aU"/><use transform="matrix(0.06172839506172839,0,0,0.06172839506172839,73.88888888888889,0)" xlink:href="#aN"/><use transform="matrix(0.06172839506172839,0,0,0.06172839506172839,80.06172839506172,0)" xlink:href="#aV"/><use transform="matrix(0.06172839506172839,0,0,0.06172839506172839,84.93827160493827,0)" xlink:href="#aO"/><use transform="matrix(0.06172839506172839,0,0,0.06172839506172839,97.28395061728395,0)" xlink:href="#aW"/></g><g id="ah"><use transform="matrix(0.06172839506172839,0,0,0.06172839506172839,0,0)" xlink:href="#aU"/><use transform="matrix(0.06172839506172839,0,0,0.06172839506172839,12.345679012345679,0)" xlink:href="#aW"/><use transform="matrix(0.06172839506172839,0,0,0.06172839506172839,24.691358024691358,0)" xlink:href="#bU"/></g><g id="ai"><use transform="matrix(0.06172839506172839,0,0,0.06172839506172839,0,0)" xlink:href="#aZ"/><use transform="matrix(0.06172839506172839,0,0,0.06172839506172839,11.11111111111111,0)" xlink:href="#aL"/><use transform="matrix(0.06172839506172839,0,0,0.06172839506172839,23.45679012345679,0)" xlink:href="#aM"/><use transform="matrix(0.06172839506172839,0,0,0.06172839506172839,34.5679012345679,0)" xlink:href="#aN"/><use transform="matrix(0.06172839506172839,0,0,0.06172839506172839,40.74074074074074,0)" xlink:href="#aO"/><use transform="matrix(0.06172839506172839,0,0,0.06172839506172839,53.08641975308642,0)" xlink:href="#aP"/><use transform="matrix(0.06172839506172839,0,0,0.06172839506172839,71.5432098765432,0)" xlink:href="#aQ"/><use transform="matrix(0.06172839506172839,0,0,0.06172839506172839,83.88888888888889,0)" xlink:href="#aR"/></g><g id="aj"><use transform="matrix(0.06172839506172839,0,0,0.06172839506172839,0,0)" xlink:href="#bU"/><use transform="matrix(0.06172839506172839,0,0,0.06172839506172839,12.345679012345679,0)" xlink:href="#aU"/><use transform="matrix(0.06172839506172839,0,0,0.06172839506172839,24.691358024691358,0)" xlink:href="#aN"/><use transform="matrix(0.06172839506172839,0,0,0.06172839506172839,30.864197530864196,0)" xlink:href="#aU"/></g><g id="ak"><use transform="matrix(0.06172839506172839,0,0,0.06172839506172839,0,0)" xlink:href="#bh"/><use transform="matrix(0.06172839506172839,0,0,0.06172839506172839,14.814814814814813,0)" xlink:href="#aQ"/><use transform="matrix(0.06172839506172839,0,0,0.06172839506172839,27.160493827160494,0)" xlink:href="#aW"/><use transform="matrix(0.06172839506172839,0,0,0.06172839506172839,39.50617283950617,0)" xlink:href="#bU"/></g><g id="al"><use transform="matrix(0.06172839506172839,0,0,0.06172839506172839,0,0)" xlink:href="#aQ"/><use transform="matrix(0.06172839506172839,0,0,0.06172839506172839,12.345679012345679,0)" xlink:href="#bX"/><use transform="matrix(0.06172839506172839,0,0,0.06172839506172839,19.691358024691358,0)" xlink:href="#aP"/><use transform="matrix(0.06172839506172839,0,0,0.06172839506172839,38.148148148148145,0)" xlink:href="#aU"/><use transform="matrix(0.06172839506172839,0,0,0.06172839506172839,50.49382716049382,0)" xlink:href="#aV"/><use transform="matrix(0.06172839506172839,0,0,0.06172839506172839,55.37037037037037,0)" xlink:href="#bg"/></g><path fill="#3a414a" d="M30-248c87 1 191-15 191 75 0 78-77 80-158 76V0H30v-248zm33 125c57 0 124 11 124-50 0-59-68-47-124-48v98" id="cb"/><g id="am"><use transform="matrix(0.06172839506172839,0,0,0.06172839506172839,0,0)" xlink:href="#cb"/><use transform="matrix(0.06172839506172839,0,0,0.06172839506172839,14.814814814814813,0)" xlink:href="#aU"/><use transform="matrix(0.06172839506172839,0,0,0.06172839506172839,27.160493827160494,0)" xlink:href="#aX"/></g><g id="an"><use transform="matrix(0.06172839506172839,0,0,0.06172839506172839,0,0)" xlink:href="#bW"/><use transform="matrix(0.06172839506172839,0,0,0.06172839506172839,6.172839506172839,0)" xlink:href="#aO"/><use transform="matrix(0.06172839506172839,0,0,0.06172839506172839,18.51851851851852,0)" xlink:href="#aR"/></g><g id="ao"><use transform="matrix(0.06172839506172839,0,0,0.06172839506172839,0,0)" xlink:href="#aU"/><use transform="matrix(0.06172839506172839,0,0,0.06172839506172839,12.345679012345679,0)" xlink:href="#aZ"/><use transform="matrix(0.06172839506172839,0,0,0.06172839506172839,23.45679012345679,0)" xlink:href="#aZ"/><use transform="matrix(0.06172839506172839,0,0,0.06172839506172839,34.5679012345679,0)" xlink:href="#aO"/><use transform="matrix(0.06172839506172839,0,0,0.06172839506172839,46.913580246913575,0)" xlink:href="#aP"/><use transform="matrix(0.06172839506172839,0,0,0.06172839506172839,65.37037037037037,0)" xlink:href="#aP"/><use transform="matrix(0.06172839506172839,0,0,0.06172839506172839,83.82716049382715,0)" xlink:href="#aO"/><use transform="matrix(0.06172839506172839,0,0,0.06172839506172839,96.17283950617283,0)" xlink:href="#bU"/><use transform="matrix(0.06172839506172839,0,0,0.06172839506172839,108.51851851851852,0)" xlink:href="#aU"/><use transform="matrix(0.06172839506172839,0,0,0.06172839506172839,120.8641975308642,0)" xlink:href="#aN"/><use transform="matrix(0.06172839506172839,0,0,0.06172839506172839,127.03703703703702,0)" xlink:href="#aV"/><use transform="matrix(0.06172839506172839,0,0,0.06172839506172839,131.91358024691357,0)" xlink:href="#aO"/><use transform="matrix(0.06172839506172839,0,0,0.06172839506172839,144.25925925925924,0)" xlink:href="#aW"/></g><g id="ap"><use transform="matrix(0.06172839506172839,0,0,0.06172839506172839,0,0)" xlink:href="#bS"/><use transform="matrix(0.06172839506172839,0,0,0.06172839506172839,18.456790123456788,0)" xlink:href="#aU"/><use transform="matrix(0.06172839506172839,0,0,0.06172839506172839,30.80246913580247,0)" xlink:href="#be"/><use transform="matrix(0.06172839506172839,0,0,0.06172839506172839,41.91358024691358,0)" xlink:href="#aQ"/></g><g id="aq"><use transform="matrix(0.06172839506172839,0,0,0.06172839506172839,0,0)" xlink:href="#ca"/><use transform="matrix(0.06172839506172839,0,0,0.06172839506172839,12.345679012345679,0)" xlink:href="#aU"/><use transform="matrix(0.06172839506172839,0,0,0.06172839506172839,24.691358024691358,0)" xlink:href="#aX"/><use transform="matrix(0.06172839506172839,0,0,0.06172839506172839,35.80246913580247,0)" xlink:href="#aP"/><use transform="matrix(0.06172839506172839,0,0,0.06172839506172839,54.25925925925925,0)" xlink:href="#aQ"/><use transform="matrix(0.06172839506172839,0,0,0.06172839506172839,66.60493827160494,0)" xlink:href="#aW"/><use transform="matrix(0.06172839506172839,0,0,0.06172839506172839,78.95061728395062,0)" xlink:href="#aN"/></g><g id="ar"><use transform="matrix(0.06172839506172839,0,0,0.06172839506172839,0,0)" xlink:href="#cb"/><use transform="matrix(0.06172839506172839,0,0,0.06172839506172839,14.814814814814813,0)" xlink:href="#aU"/><use transform="matrix(0.06172839506172839,0,0,0.06172839506172839,27.160493827160494,0)" xlink:href="#aX"/><use transform="matrix(0.06172839506172839,0,0,0.06172839506172839,38.27160493827161,0)" xlink:href="#aP"/><use transform="matrix(0.06172839506172839,0,0,0.06172839506172839,56.72839506172839,0)" xlink:href="#aQ"/><use transform="matrix(0.06172839506172839,0,0,0.06172839506172839,69.07407407407408,0)" xlink:href="#aW"/><use transform="matrix(0.06172839506172839,0,0,0.06172839506172839,81.41975308641976,0)" xlink:href="#aN"/></g><path fill="#3a414a" d="M190 0L58-211 59 0H30v-248h39L202-35l-2-213h31V0h-41" id="cc"/><g id="as"><use transform="matrix(0.06172839506172839,0,0,0.06172839506172839,0,0)" xlink:href="#cc"/><use transform="matrix(0.06172839506172839,0,0,0.06172839506172839,15.987654320987653,0)" xlink:href="#aO"/><use transform="matrix(0.06172839506172839,0,0,0.06172839506172839,28.333333333333332,0)" xlink:href="#aN"/><use transform="matrix(0.06172839506172839,0,0,0.06172839506172839,34.50617283950617,0)" xlink:href="#aV"/><use transform="matrix(0.06172839506172839,0,0,0.06172839506172839,39.382716049382715,0)" xlink:href="#bW"/><use transform="matrix(0.06172839506172839,0,0,0.06172839506172839,45.55555555555556,0)" xlink:href="#aX"/></g><g id="at"><use transform="matrix(0.06172839506172839,0,0,0.06172839506172839,0,0)" xlink:href="#bZ"/><use transform="matrix(0.06172839506172839,0,0,0.06172839506172839,12.345679012345679,0)" xlink:href="#aO"/><use transform="matrix(0.06172839506172839,0,0,0.06172839506172839,24.691358024691358,0)" xlink:href="#aN"/><use transform="matrix(0.06172839506172839,0,0,0.06172839506172839,30.864197530864196,0)" xlink:href="#aQ"/><use transform="matrix(0.06172839506172839,0,0,0.06172839506172839,43.20987654320987,0)" xlink:href="#bg"/><use transform="matrix(0.06172839506172839,0,0,0.06172839506172839,48.08641975308642,0)" xlink:href="#bc"/><use transform="matrix(0.06172839506172839,0,0,0.06172839506172839,52.28395061728395,0)" xlink:href="#aM"/></g><g id="au"><use transform="matrix(0.05,0,0,0.05,0,0)" xlink:href="#bi"/><use transform="matrix(0.05,0,0,0.05,12.950000000000001,0)" xlink:href="#bk"/><use transform="matrix(0.05,0,0,0.05,22.950000000000003,0)" xlink:href="#bt"/><use transform="matrix(0.05,0,0,0.05,32.95,0)" xlink:href="#bl"/><use transform="matrix(0.05,0,0,0.05,41.95,0)" xlink:href="#bs"/><use transform="matrix(0.05,0,0,0.05,45.900000000000006,0)" xlink:href="#bn"/><use transform="matrix(0.05,0,0,0.05,55.900000000000006,0)" xlink:href="#bm"/><use transform="matrix(0.05,0,0,0.05,65.9,0)" xlink:href="#bx"/></g><path d="M96-169c-40 0-48 33-48 73s9 75 48 75c24 0 41-14 43-38l32 2c-6 37-31 61-74 61-59 0-76-41-82-99-10-93 101-131 147-64 4 7 5 14 7 22l-32 3c-4-21-16-35-41-35" id="cd"/><g id="av"><use transform="matrix(0.05,0,0,0.05,0,0)" xlink:href="#bs"/><use transform="matrix(0.05,0,0,0.05,3.95,0)" xlink:href="#bt"/><use transform="matrix(0.05,0,0,0.05,13.949999999999998,0)" xlink:href="#bv"/><use transform="matrix(0.05,0,0,0.05,22.95,0)" xlink:href="#bk"/><use transform="matrix(0.05,0,0,0.05,32.95,0)" xlink:href="#bs"/><use transform="matrix(0.05,0,0,0.05,36.900000000000006,0)" xlink:href="#cd"/><use transform="matrix(0.05,0,0,0.05,45.900000000000006,0)" xlink:href="#bm"/></g><path d="M115-194c55 1 70 41 70 98S169 2 115 4C84 4 66-9 55-30l1 105H24l-1-265h31l2 30c10-21 28-34 59-34zm-8 174c40 0 45-34 45-75s-6-73-45-74c-42 0-51 32-51 76 0 43 10 73 51 73" id="ce"/><g id="aw"><use transform="matrix(0.05,0,0,0.05,0,0)" xlink:href="#ce"/><use transform="matrix(0.05,0,0,0.05,10,0)" xlink:href="#bo"/><use transform="matrix(0.05,0,0,0.05,20,0)" xlink:href="#bs"/><use transform="matrix(0.05,0,0,0.05,23.95,0)" xlink:href="#bn"/></g><g id="ax"><use transform="matrix(0.06172839506172839,0,0,0.06172839506172839,0,0)" xlink:href="#bh"/><use transform="matrix(0.06172839506172839,0,0,0.06172839506172839,14.814814814814813,0)" xlink:href="#aQ"/><use transform="matrix(0.06172839506172839,0,0,0.06172839506172839,27.160493827160494,0)" xlink:href="#aW"/><use transform="matrix(0.06172839506172839,0,0,0.06172839506172839,39.50617283950617,0)" xlink:href="#bU"/></g><g id="ay"><use transform="matrix(0.06172839506172839,0,0,0.06172839506172839,0,0)" xlink:href="#ca"/><use transform="matrix(0.06172839506172839,0,0,0.06172839506172839,12.345679012345679,0)" xlink:href="#aU"/><use transform="matrix(0.06172839506172839,0,0,0.06172839506172839,24.691358024691358,0)" xlink:href="#aX"/><use transform="matrix(0.06172839506172839,0,0,0.06172839506172839,35.80246913580247,0)" xlink:href="#aP"/><use transform="matrix(0.06172839506172839,0,0,0.06172839506172839,54.25925925925925,0)" xlink:href="#aQ"/><use transform="matrix(0.06172839506172839,0,0,0.06172839506172839,66.60493827160494,0)" xlink:href="#aW"/><use transform="matrix(0.06172839506172839,0,0,0.06172839506172839,78.95061728395062,0)" xlink:href="#aN"/></g><g id="az"><use transform="matrix(0.06172839506172839,0,0,0.06172839506172839,0,0)" xlink:href="#aQ"/><use transform="matrix(0.06172839506172839,0,0,0.06172839506172839,12.345679012345679,0)" xlink:href="#bX"/><use transform="matrix(0.06172839506172839,0,0,0.06172839506172839,19.691358024691358,0)" xlink:href="#aP"/><use transform="matrix(0.06172839506172839,0,0,0.06172839506172839,38.148148148148145,0)" xlink:href="#aU"/><use transform="matrix(0.06172839506172839,0,0,0.06172839506172839,50.49382716049382,0)" xlink:href="#aV"/><use transform="matrix(0.06172839506172839,0,0,0.06172839506172839,55.37037037037037,0)" xlink:href="#bg"/></g><path fill="#3a414a" d="M24-231v-30h32v30H24zM-9 49c24 4 33-6 33-30v-209h32V24c2 40-23 58-65 49V49" id="cf"/><g id="aA"><use transform="matrix(0.06172839506172839,0,0,0.06172839506172839,0,0)" xlink:href="#bV"/><use transform="matrix(0.06172839506172839,0,0,0.06172839506172839,14.814814814814813,0)" xlink:href="#aW"/><use transform="matrix(0.06172839506172839,0,0,0.06172839506172839,27.160493827160494,0)" xlink:href="#cf"/><use transform="matrix(0.06172839506172839,0,0,0.06172839506172839,32.03703703703704,0)" xlink:href="#aO"/><use transform="matrix(0.06172839506172839,0,0,0.06172839506172839,44.382716049382715,0)" xlink:href="#aX"/></g><g id="aB"><use transform="matrix(0.06172839506172839,0,0,0.06172839506172839,0,0)" xlink:href="#aM"/><use transform="matrix(0.06172839506172839,0,0,0.06172839506172839,11.11111111111111,0)" xlink:href="#aN"/><use transform="matrix(0.06172839506172839,0,0,0.06172839506172839,17.28395061728395,0)" xlink:href="#aU"/><use transform="matrix(0.06172839506172839,0,0,0.06172839506172839,29.629629629629626,0)" xlink:href="#aX"/></g><g id="aC"><use transform="matrix(0.06172839506172839,0,0,0.06172839506172839,0,0)" xlink:href="#aU"/><use transform="matrix(0.06172839506172839,0,0,0.06172839506172839,12.345679012345679,0)" xlink:href="#aN"/></g><g id="aD"><use transform="matrix(0.06172839506172839,0,0,0.06172839506172839,0,0)" xlink:href="#aN"/><use transform="matrix(0.06172839506172839,0,0,0.06172839506172839,6.172839506172839,0)" xlink:href="#bZ"/><use transform="matrix(0.06172839506172839,0,0,0.06172839506172839,18.51851851851852,0)" xlink:href="#aQ"/></g><g id="aE"><use transform="matrix(0.06172839506172839,0,0,0.06172839506172839,0,0)" xlink:href="#bZ"/><use transform="matrix(0.06172839506172839,0,0,0.06172839506172839,12.345679012345679,0)" xlink:href="#aO"/><use transform="matrix(0.06172839506172839,0,0,0.06172839506172839,24.691358024691358,0)" xlink:href="#aN"/><use transform="matrix(0.06172839506172839,0,0,0.06172839506172839,30.864197530864196,0)" xlink:href="#aQ"/><use transform="matrix(0.06172839506172839,0,0,0.06172839506172839,43.20987654320987,0)" xlink:href="#bg"/></g><g id="aF"><use transform="matrix(0.06172839506172839,0,0,0.06172839506172839,0,0)" xlink:href="#aS"/><use transform="matrix(0.06172839506172839,0,0,0.06172839506172839,15.987654320987653,0)" xlink:href="#aQ"/><use transform="matrix(0.06172839506172839,0,0,0.06172839506172839,28.333333333333332,0)" xlink:href="#aZ"/><use transform="matrix(0.06172839506172839,0,0,0.06172839506172839,39.44444444444444,0)" xlink:href="#aQ"/><use transform="matrix(0.06172839506172839,0,0,0.06172839506172839,51.79012345679012,0)" xlink:href="#aV"/><use transform="matrix(0.06172839506172839,0,0,0.06172839506172839,56.666666666666664,0)" xlink:href="#aT"/><use transform="matrix(0.06172839506172839,0,0,0.06172839506172839,67.77777777777777,0)" xlink:href="#aQ"/></g><g id="aG"><use transform="matrix(0.05,0,0,0.05,0,0)" xlink:href="#bs"/><use transform="matrix(0.05,0,0,0.05,3.95,0)" xlink:href="#bt"/><use transform="matrix(0.05,0,0,0.05,13.949999999999998,0)" xlink:href="#bv"/><use transform="matrix(0.05,0,0,0.05,22.95,0)" xlink:href="#bk"/><use transform="matrix(0.05,0,0,0.05,32.95,0)" xlink:href="#bs"/><use transform="matrix(0.05,0,0,0.05,36.900000000000006,0)" xlink:href="#cd"/><use transform="matrix(0.05,0,0,0.05,45.900000000000006,0)" xlink:href="#bm"/></g><g id="aH"><use transform="matrix(0.05,0,0,0.05,0,0)" xlink:href="#bp"/><use transform="matrix(0.05,0,0,0.05,5,0)" xlink:href="#bk"/></g><g id="aI"><use transform="matrix(0.05,0,0,0.05,0,0)" xlink:href="#cd"/><use transform="matrix(0.05,0,0,0.05,9,0)" xlink:href="#bB"/><use transform="matrix(0.05,0,0,0.05,19,0)" xlink:href="#bl"/><use transform="matrix(0.05,0,0,0.05,28,0)" xlink:href="#bp"/><use transform="matrix(0.05,0,0,0.05,33,0)" xlink:href="#bk"/><use transform="matrix(0.05,0,0,0.05,43,0)" xlink:href="#by"/><use transform="matrix(0.05,0,0,0.05,57.95,0)" xlink:href="#bm"/><use transform="matrix(0.05,0,0,0.05,67.95,0)" xlink:href="#bx"/></g><g id="aJ"><use transform="matrix(0.06172839506172839,0,0,0.06172839506172839,0,0)" xlink:href="#bV"/><use transform="matrix(0.06172839506172839,0,0,0.06172839506172839,14.814814814814813,0)" xlink:href="#bX"/><use transform="matrix(0.06172839506172839,0,0,0.06172839506172839,22.160493827160494,0)" xlink:href="#aP"/><use transform="matrix(0.06172839506172839,0,0,0.06172839506172839,40.61728395061728,0)" xlink:href="#aU"/><use transform="matrix(0.06172839506172839,0,0,0.06172839506172839,52.962962962962955,0)" xlink:href="#aV"/><use transform="matrix(0.06172839506172839,0,0,0.06172839506172839,57.8395061728395,0)" xlink:href="#bg"/></g></defs></g></svg>