<?xml version="1.0" encoding="windows-1252" standalone="no"?>
<svg xmlns="http://www.w3.org/2000/svg" xmlns:xlink="http://www.w3.org/1999/xlink" contentStyleType="text/css" height="458px" preserveAspectRatio="none" style="width:651px;height:458px;background:#FFFFFF;" version="1.1" viewBox="0 0 651 458" width="651px" zoomAndPan="magnify"><defs/><g><g id="elem_n1"><path d="M6,35.31 L6,75.5756 L329,75.5756 L329,45.31 L319,35.31 L6,35.31 " fill="#FEFFDD" style="stroke:#181818;stroke-width:0.5;"/><path d="M319,35.31 L319,45.31 L329,45.31 L319,35.31 " fill="#FEFFDD" style="stroke:#181818;stroke-width:1.0;"/><text fill="#000000" font-family="sans-serif" font-size="13" lengthAdjust="spacing" textLength="254" x="12" y="52.3769">@prefix schema: &lt;https://schema.org&gt;</text><text fill="#000000" font-family="sans-serif" font-size="13" lengthAdjust="spacing" textLength="302" x="12" y="67.5097">@prefix ex: &lt;https://example.com/vocabulary&gt;</text></g><!--class Invoice--><g id="elem_Invoice"><rect codeLine="3" fill="#F1F1F1" height="96.8906" id="Invoice" rx="2.5" ry="2.5" style="stroke:#181818;stroke-width:0.5;" width="176" x="363.5" y="7"/><ellipse cx="394.7" cy="23" fill="#ADD1B2" rx="11" ry="11" style="stroke:#181818;stroke-width:1.0;"/><path d="M397.6688,28.6406 Q397.0906,28.9375 396.45,29.0781 Q395.8094,29.2344 395.1063,29.2344 Q392.6063,29.2344 391.2781,27.5938 Q389.9656,25.9375 389.9656,22.8125 Q389.9656,19.6875 391.2781,18.0313 Q392.6063,16.375 395.1063,16.375 Q395.8094,16.375 396.45,16.5313 Q397.1063,16.6875 397.6688,16.9844 L397.6688,19.7031 Q397.0438,19.125 396.45,18.8594 Q395.8563,18.5781 395.2313,18.5781 Q393.8875,18.5781 393.2,19.6563 Q392.5125,20.7188 392.5125,22.8125 Q392.5125,24.9063 393.2,25.9844 Q393.8875,27.0469 395.2313,27.0469 Q395.8563,27.0469 396.45,26.7813 Q397.0438,26.5 397.6688,25.9219 L397.6688,28.6406 Z " fill="#000000"/><text fill="#000000" font-family="sans-serif" font-size="14" lengthAdjust="spacing" textLength="108" x="412.3" y="27.8467">schema:Invoice</text><line style="stroke:#181818;stroke-width:0.5;" x1="364.5" x2="538.5" y1="39" y2="39"/><text fill="#000000" font-family="sans-serif" font-size="14" lengthAdjust="spacing" textLength="94" x="369.5" y="55.9951">schema:price</text><text fill="#000000" font-family="sans-serif" font-size="14" lengthAdjust="spacing" textLength="156" x="369.5" y="72.292">schema:priceCurrency</text><text fill="#000000" font-family="sans-serif" font-size="14" lengthAdjust="spacing" textLength="164" x="369.5" y="88.5889">schema:paymentStatus</text><line style="stroke:#181818;stroke-width:0.5;" x1="364.5" x2="538.5" y1="95.8906" y2="95.8906"/></g><!--class Reservation--><g id="elem_Reservation"><rect codeLine="8" fill="#F1F1F1" height="80.5938" id="Reservation" rx="2.5" ry="2.5" style="stroke:#181818;stroke-width:0.5;" width="229" x="230" y="180.89"/><ellipse cx="245" cy="196.89" fill="#ADD1B2" rx="11" ry="11" style="stroke:#181818;stroke-width:1.0;"/><path d="M247.9688,202.5306 Q247.3906,202.8275 246.75,202.9681 Q246.1094,203.1244 245.4063,203.1244 Q242.9063,203.1244 241.5781,201.4838 Q240.2656,199.8275 240.2656,196.7025 Q240.2656,193.5775 241.5781,191.9213 Q242.9063,190.265 245.4063,190.265 Q246.1094,190.265 246.75,190.4213 Q247.4063,190.5775 247.9688,190.8744 L247.9688,193.5931 Q247.3438,193.015 246.75,192.7494 Q246.1563,192.4681 245.5313,192.4681 Q244.1875,192.4681 243.5,193.5463 Q242.8125,194.6088 242.8125,196.7025 Q242.8125,198.7963 243.5,199.8744 Q244.1875,200.9369 245.5313,200.9369 Q246.1563,200.9369 246.75,200.6713 Q247.3438,200.39 247.9688,199.8119 L247.9688,202.5306 Z " fill="#000000"/><text fill="#000000" font-family="sans-serif" font-size="14" lengthAdjust="spacing" textLength="197" x="259" y="201.7367">schema:LodgingReservation</text><line style="stroke:#181818;stroke-width:0.5;" x1="231" x2="458" y1="212.89" y2="212.89"/><text fill="#000000" font-family="sans-serif" font-size="14" lengthAdjust="spacing" textLength="148" x="236" y="229.8851">schema:checkinTime</text><text fill="#000000" font-family="sans-serif" font-size="14" lengthAdjust="spacing" textLength="159" x="236" y="246.182">schema:checkoutTime</text><line style="stroke:#181818;stroke-width:0.5;" x1="231" x2="458" y1="253.4838" y2="253.4838"/></g><!--class Person--><g id="elem_Person"><rect codeLine="12" fill="#F1F1F1" height="113.1875" id="Person" rx="2.5" ry="2.5" style="stroke:#181818;stroke-width:0.5;" width="198" x="338.5" y="338.48"/><ellipse cx="379.15" cy="354.48" fill="#ADD1B2" rx="11" ry="11" style="stroke:#181818;stroke-width:1.0;"/><path d="M382.1188,360.1206 Q381.5406,360.4175 380.9,360.5581 Q380.2594,360.7144 379.5563,360.7144 Q377.0563,360.7144 375.7281,359.0738 Q374.4156,357.4175 374.4156,354.2925 Q374.4156,351.1675 375.7281,349.5113 Q377.0563,347.855 379.5563,347.855 Q380.2594,347.855 380.9,348.0113 Q381.5563,348.1675 382.1188,348.4644 L382.1188,351.1831 Q381.4938,350.605 380.9,350.3394 Q380.3063,350.0581 379.6813,350.0581 Q378.3375,350.0581 377.65,351.1363 Q376.9625,352.1988 376.9625,354.2925 Q376.9625,356.3863 377.65,357.4644 Q378.3375,358.5269 379.6813,358.5269 Q380.3063,358.5269 380.9,358.2613 Q381.4938,357.98 382.1188,357.4019 L382.1188,360.1206 Z " fill="#000000"/><text fill="#000000" font-family="sans-serif" font-size="14" lengthAdjust="spacing" textLength="109" x="398.85" y="359.3267">schema:Person</text><line style="stroke:#181818;stroke-width:0.5;" x1="339.5" x2="535.5" y1="370.48" y2="370.48"/><text fill="#000000" font-family="sans-serif" font-size="14" lengthAdjust="spacing" textLength="137" x="344.5" y="387.4751">schema:givenName</text><text fill="#000000" font-family="sans-serif" font-size="14" lengthAdjust="spacing" textLength="138" x="344.5" y="403.772">schema:familyName</text><text fill="#000000" font-family="sans-serif" font-size="14" lengthAdjust="spacing" textLength="96" x="344.5" y="420.0689">schema:email</text><text fill="#000000" font-family="sans-serif" font-size="14" lengthAdjust="spacing" textLength="186" x="344.5" y="436.3657">schema:telephoneNumber</text><line style="stroke:#181818;stroke-width:0.5;" x1="339.5" x2="535.5" y1="443.6675" y2="443.6675"/></g><!--link Reservation to Person--><g id="link_Reservation_Person"><path codeLine="19" d="M353.07,261.62 C357.2,276.76 362.94,293.9 370.5,308.48 C375.71,318.53 378.6561,323.7094 385.4761,333.1894 " fill="none" id="Reservation-to-Person" style="stroke:#181818;stroke-width:1.0;"/><polygon fill="#181818" points="388.98,338.06,386.9711,328.4182,386.0601,334.0012,380.4771,333.0901,388.98,338.06" style="stroke:#181818;stroke-width:1.0;"/><text fill="#000000" font-family="sans-serif" font-size="13" lengthAdjust="spacing" textLength="131" x="371.5" y="304.5469">schema:underName</text><text fill="#000000" font-family="sans-serif" font-size="13" lengthAdjust="spacing" textLength="24" x="328.5019" y="281.6368">0..n</text><text fill="#000000" font-family="sans-serif" font-size="13" lengthAdjust="spacing" textLength="24" x="357.6041" y="327.2724">1..1</text></g><!--link Invoice to Person--><g id="link_Invoice_Person"><path codeLine="20" d="M492.96,104.31 C498.93,113.58 504.18,123.63 507.5,133.89 C531.4,207.72 533.58,235.4 507.5,308.48 C503.82,318.79 501.7021,323.8009 495.3621,333.0509 " fill="none" id="Invoice-to-Person" style="stroke:#181818;stroke-width:1.0;"/><polygon fill="#181818" points="491.97,338,500.3576,332.8378,494.7968,333.8758,493.7588,328.315,491.97,338" style="stroke:#181818;stroke-width:1.0;"/><text fill="#000000" font-family="sans-serif" font-size="13" lengthAdjust="spacing" textLength="116" x="527.5" y="225.7569">schema:customer</text><text fill="#000000" font-family="sans-serif" font-size="13" lengthAdjust="spacing" textLength="24" x="472.9187" y="123.9598">0..n</text><text fill="#000000" font-family="sans-serif" font-size="13" lengthAdjust="spacing" textLength="24" x="472.8806" y="327.6082">1..1</text></g><!--link Invoice to Reservation--><g id="link_Invoice_Reservation"><path codeLine="21" d="M420.26,104.24 C404.41,128.5 388.6617,152.597 373.6417,175.587 " fill="none" id="Invoice-to-Reservation" style="stroke:#181818;stroke-width:1.0;"/><polygon fill="#181818" points="370.36,180.61,378.6312,175.2633,373.0947,176.4242,371.9338,170.8877,370.36,180.61" style="stroke:#181818;stroke-width:1.0;"/><text fill="#000000" font-family="sans-serif" font-size="13" lengthAdjust="spacing" textLength="100" x="399.5" y="146.9569">ex:itemOrdered</text><text fill="#000000" font-family="sans-serif" font-size="13" lengthAdjust="spacing" textLength="24" x="390.4496" y="123.8804">1..1</text><text fill="#000000" font-family="sans-serif" font-size="13" lengthAdjust="spacing" textLength="24" x="348.6556" y="169.7252">1..1</text></g><!--SRC=[XL7BJiGm3BptAwBSDwNN2bL8d93GWe0ZbspgRICI9ygZQeNuTq8Vs-nUECJoZEqPAqOJWD07w-0iH-953vhNvBuFmVgwB1U26TSrdxXrmPXrmCYrLS24qULW13z5nTtKKC8zmQeeXEBU4xegF-5Wf82vkkRakrYBrYLu1HwZSu1Ykf1yqe3XFV0GVV5p8_visavYzmOUtC23D3ZxP7ZtIb5yIVoG6gue4yFCtMg_WlEhtfBkKfqS08zy5pfpBTMKC-b9jO402cnl48vHdy0bgo9VaTunbemEXuRGYh6AReRrTfw8BRXPVll2_sT4zC7ev7OPMVgoaMo9-k_6Ce1-SSaAsby0]--></g></svg>